<?xml version="1.0" standalone="no"?>
<!DOCTYPE svg PUBLIC "-//W3C//DTD SVG 1.1//EN" "http://www.w3.org/Graphics/SVG/1.1/DTD/svg11.dtd" >
<svg>
<metadata>
Created by FontForge 20090914 at Thu Jan 16 18:58:04 2014
 By www-data
</metadata>
<defs>
<font id="AvantGardeBold" horiz-adv-x="1136" >
  <font-face 
    font-family="AvantGarde"
    font-weight="700"
    font-stretch="normal"
    units-per-em="2048"
    panose-1="2 11 -30 0 0 0 0 0 0 0"
    ascent="1638"
    descent="-410"
    x-height="1136"
    cap-height="1504"
    bbox="-159 -526.001 2542 2224"
    underline-thickness="0"
    underline-position="0"
    unicode-range="U+0020-U+F002"
  />
<missing-glyph horiz-adv-x="1536" 
d="M256 0v1280h1024v-1280h-1024zM1248 32v1216h-960v-1216h960z" />
    <glyph glyph-name=".notdef" horiz-adv-x="1536" 
d="M256 0v1280h1024v-1280h-1024zM1248 32v1216h-960v-1216h960z" />
    <glyph glyph-name="space" unicode=" " horiz-adv-x="575" 
 />
    <glyph glyph-name="exclam" unicode="!" horiz-adv-x="576" 
d="M144 384v1120h256v-1120h-256zM144 256h256v-256h-256v256z" />
    <glyph glyph-name="quotedbl" unicode="&#x22;" horiz-adv-x="736" 
d="M128 1040v464h160v-464h-160zM400 1040v464h160v-464h-160z" />
    <glyph glyph-name="numbersign" unicode="#" 
d="M432 1504h176l-48 -448h176l48 448h176l-48 -448h176v-192h-208l-16 -192h176v-192h-208l-48 -480h-176l48 480h-176l-64 -480h-176l64 480h-208v192h240l16 192h-208v192h240zM528 864l-16 -192h176l16 192h-176z" />
    <glyph glyph-name="dollar" unicode="$" 
d="M176 1088c0 76.667 17.834 154.666 53.501 233.999s108.5 129.333 218.5 150v256h240v-256c51.333 -15.333 97.666 -42.666 138.999 -81.999s73.833 -83.333 97.5 -132s35.5 -94.667 35.5 -138h-256c-9.33301 43.333 -26.666 75.833 -51.999 97.5s-53.333 32.5 -84 32.5
c-36.667 0 -68.5 -14.333 -95.5 -43s-40.5 -68.334 -40.5 -119.001c6.66699 -47.333 43 -85.666 109 -114.999l208.5 -89.5c73 -30.333 134.333 -75.833 184 -136.5s74.5 -147.667 74.5 -261v-22c0 -66 -20.667 -132.333 -62 -199s-122 -128.334 -242 -185.001v-256h-256
v256l-65 34c-32 16.667 -67.5 40.167 -106.5 70.5s-73.833 69.333 -104.5 117s-46 100.834 -46 159.501c0 7.33301 0.666992 19 2 35h272c4 -46 25.667 -84.167 65 -114.5s82.666 -45.5 129.999 -45.5c41.333 0 75.5 12.167 102.5 36.5s40.5 60.5 40.5 108.5
c0 6 -0.666992 16.333 -2 31c-6.66699 43.333 -42.667 80.166 -108 110.499l-203.5 92c-70.333 31 -129.333 74.833 -177 131.5s-71.5 137.334 -71.5 242.001z" />
    <glyph glyph-name="percent" unicode="%" horiz-adv-x="1744" 
d="M400 1536c92 -10 165.331 -36.332 219.998 -78.999s93 -88.334 115 -137.001s33 -88.667 33 -120c3.33301 -18 5 -34.667 5 -50c0 -39.333 -8.5 -80.333 -25.5 -123s-41 -81.5 -72 -116.5s-70 -63.833 -117 -86.5s-99.833 -36 -158.5 -40
c-98 0 -183.833 31.5 -257.5 94.5s-110.5 154.167 -110.5 273.5c0 43.333 10.833 93.666 32.5 150.999s60.334 109.333 116.001 156s128.834 72.334 219.501 77.001zM447.998 0.000976562l608 1504h208l-624 -1504h-192zM1312 688.001
c106 0 187.331 -27.3301 243.998 -81.9971s98 -134 124 -238c6 -20.667 9 -42.334 9 -65.001c0 -50 -14.167 -100.333 -42.5 -151s-67.666 -92.834 -117.999 -126.501s-106.5 -52.834 -168.5 -57.501c-6.66699 -0.666992 -16.667 -1 -30 -1
c-58.667 0 -116.5 13.5 -173.5 40.5s-104.167 67 -141.5 120s-56 114.5 -56 184.5c0 10.667 0.333008 18.667 1 24c0 28 10.833 70 32.5 126s58.834 107.667 111.501 155s122 71 208 71zM255.996 1184c0 -36.667 4.33301 -67 13 -91s23.334 -41.5 44.001 -52.5
s49.667 -16.5 87 -16.5c85.333 0 128 53.333 128 160c0 21.333 -6.5 40.833 -19.5 58.5s-30 31.667 -51 42s-42.5 15.5 -64.5 15.5c-28.667 0 -55.334 -9.5 -80.001 -28.5s-43.667 -48.167 -57 -87.5zM1344 448.004c-8 2 -16.334 3.00195 -25.001 3.00195
c-31.333 0 -59.333 -10.833 -84 -32.5s-37 -51.834 -37 -90.501c0 -5.33301 0.666992 -13.333 2 -24c4.66699 -30 20.834 -54.667 48.501 -74s57.167 -29 88.5 -29c28 0 53.167 8.66699 75.5 26s36.833 43 43.5 77c2 10 3 20 3 30c0 33.333 -10.333 60.666 -31 81.999
s-48.667 32 -84 32z" />
    <glyph glyph-name="ampersand" unicode="&#x26;" horiz-adv-x="1376" 
d="M256 1344c24 46.667 55.4961 86.332 94.4961 118.999s81.667 57.334 128 74.001s94.166 25 143.499 25c66 0 127.833 -14.833 185.5 -44.5s104.834 -74 141.501 -133s56.334 -131.167 59.001 -216.5c0 -58 -7.5 -106 -22.5 -144s-37.667 -72 -68 -102
s-80.166 -70.667 -149.499 -122l128 -160l128 256h304l-256 -464l272 -272l-192 -176l-208 192l-65 -65.5c-27.333 -27.667 -55.833 -51.5 -85.5 -71.5s-65.667 -36.833 -108 -50.5s-89.5 -20.5 -141.5 -20.5c-31.333 0 -73.666 10.333 -126.999 31s-107 50.334 -161 89.001
s-99.5 86.167 -136.5 142.5s-55.5 118.166 -55.5 185.499c0 50.667 12 108.167 36 172.5s58.333 124 103 179s94.334 92.5 149.001 112.5c-42.667 65.333 -73.667 119.833 -93 163.5s-29 92.167 -29 145.5c0 47.333 8.66699 99 26 155zM479.996 1168
c18 -88.667 55.333 -147.333 112 -176c100.667 58 151 114 151 168c0 26.667 -13 50.667 -39 72c-32.667 26.667 -68 40 -106 40c-32.667 0 -60.5 -9.83301 -83.5 -29.5s-34.5 -44.5 -34.5 -74.5zM751.996 399.999l-224 256c-20.667 -5.33301 -46.5 -20.5 -77.5 -45.5
s-57.833 -55.167 -80.5 -90.5s-34 -70 -34 -104c19.333 -114.667 83.333 -178.667 192 -192c26 0 56.833 9.16699 92.5 27.5s66.5 41.333 92.5 69s39 54.167 39 79.5z" />
    <glyph glyph-name="quotesingle" unicode="'" horiz-adv-x="576" 
d="M160 1504h271.998c-1.33301 -24 -2 -43 -2 -57c0.666992 -24 1.33398 -50.333 2.00098 -79c0.666992 -29.333 1 -53.333 1 -72c0 -105.333 -18.167 -190.5 -54.5 -255.5s-109.166 -102.5 -218.499 -112.5v144c32.667 8 56.5 15 71.5 21s28.167 19.5 39.5 40.5
s17 53.833 17 98.5h-128v272z" />
    <glyph glyph-name="parenleft" unicode="(" horiz-adv-x="768" 
d="M720 -272c-88.667 36 -167.831 86.332 -237.498 150.999s-127.5 138.334 -173.5 221.001s-81 171.667 -105 267s-36 191 -36 287c0 97.333 11.667 191.166 35 281.499s58 174.5 104 252.5s104 145.833 174 203.5s149.667 100.5 239 128.5v-320
c-56 -21.333 -105 -60.833 -147 -118.5s-74.167 -126.167 -96.5 -205.5s-33.5 -162.666 -33.5 -249.999c0 -82 10.167 -161.167 30.5 -237.5s51.166 -145.5 92.499 -207.5s92.666 -111.667 153.999 -149v-304z" />
    <glyph glyph-name="parenright" unicode=")" horiz-adv-x="768" 
d="M64 1520c94 -36 169.667 -79 227 -129s115 -113.667 173 -191c117.333 -166 176 -349.333 176 -550c0 -77.333 -8.33301 -153.666 -25 -228.999s-36.667 -141.833 -60 -199.5s-48.666 -110.167 -75.999 -157.5s-48.333 -79.333 -63 -96
c-58 -66.667 -115.667 -118.667 -173 -156s-117 -60 -179 -68v288c70 40.667 128.167 92 174.5 154s80.833 131.167 103.5 207.5s34 153.833 34 232.5c0 64 -6.83301 126.333 -20.5 187s-33.667 117 -60 169s-59.333 98.667 -99 140s-83.834 72.666 -132.501 93.999v304z
" />
    <glyph glyph-name="asterisk" unicode="*" horiz-adv-x="896" 
d="M384 1552l80 -176l80 176l128 -64l-112 -176h208v-144h-208l112 -160l-128 -80l-80 192l-96 -192l-128 80l112 160h-208v144h192l-80 176z" />
    <glyph glyph-name="plus" unicode="+" horiz-adv-x="1216" 
d="M496 1184h240v-400h384v-240h-384v-416h-240v416h-400v240h400v400z" />
    <glyph glyph-name="comma" unicode="," horiz-adv-x="576" 
d="M144 288l271.999 0.000976562c0 -27.333 1.33301 -68 4 -122s4 -93.667 4 -119c0 -64.667 -7.16699 -119.834 -21.5 -165.501s-42.166 -83.667 -83.499 -114s-99.666 -48.833 -174.999 -55.5v144l49 12.5c17.333 4.33301 31.166 9.33301 41.499 15s19.5 15.5 27.5 29.5
s12 32.667 12 56c0 6 -0.666992 16.333 -2 31h-128v288z" />
    <glyph glyph-name="hyphen" unicode="-" horiz-adv-x="848" 
d="M144 544v240h560v-240h-560z" />
    <glyph glyph-name="period" unicode="." horiz-adv-x="576" 
d="M144 272h288v-272h-288v272z" />
    <glyph glyph-name="slash" unicode="/" horiz-adv-x="928" 
d="M64 -240l656 1776h192l-656 -1776h-192z" />
    <glyph glyph-name="zero" unicode="0" 
d="M64 1072c0 97.333 22.002 181.165 66.002 251.498s104 123.333 180 159s159.333 53.5 250 53.5c78 0 148.5 -12.333 211.5 -37s117.167 -59.167 162.5 -103.5s79.666 -94.333 102.999 -150s35 -113.5 35 -173.5v-576c0 -71.333 -8.66699 -138.166 -26 -200.499
s-46 -119 -86 -170s-91.833 -91.667 -155.5 -122s-139.834 -47.5 -228.501 -51.5c-66 0 -129.333 10.333 -190 31s-115.5 52.334 -164.5 95.001s-87.5 96.5 -115.5 161.5s-42 139.833 -42 224.5v608zM336.002 991.999l0.000976562 -480.001
c0 -90 21.833 -157.833 65.5 -203.5s96.5 -68.5 158.5 -68.5s109.167 11.167 141.5 33.5s54.166 54.5 65.499 96.5s17 94.667 17 158v480c0 84.667 -15.333 151.167 -46 199.5s-90 72.5 -178 72.5c-80.667 0 -138.167 -27.167 -172.5 -81.5s-51.5 -123.166 -51.5 -206.499z
" />
    <glyph glyph-name="one" unicode="1" 
d="M304 1504h464v-1504h-256v1248h-208v256z" />
    <glyph glyph-name="two" unicode="2" 
d="M64 992c8.66699 96 27.6689 178.167 57.002 246.5s66.833 124 112.5 167s95.5 74.5 149.5 94.5s110.667 30 170 30c54.667 0 107.5 -7.83301 158.5 -23.5s96.5 -37.834 136.5 -66.501c68.667 -46.667 121.5 -105.167 158.5 -175.5s55.5 -144.833 55.5 -223.5
c0 -64 -12.667 -126.5 -38 -187.5s-62.666 -116.167 -111.999 -165.5l-448 -432h576v-256h-960v256l592 560c38 34 68.167 71 90.5 111s33.5 79.667 33.5 119c0 71.333 -36 133.333 -108 186c-44.667 29.333 -89.334 44 -134.001 44
c-40.667 0 -77.834 -11.167 -111.501 -33.5s-60.334 -52.166 -80.001 -89.499s-29.5 -77 -29.5 -119c0 -14 1 -28 3 -42h-272z" />
    <glyph glyph-name="three" unicode="3" 
d="M144 1136c2.66699 73.333 24.332 140.835 64.999 202.502s92.667 110.167 156 145.5s129.333 53 198 53c74 0 143.333 -22.333 208 -67s117 -113.334 157 -206.001c15.333 -33.333 23 -70.666 23 -111.999c0 -57.333 -14.333 -113.5 -43 -168.5
s-64.667 -94.833 -108 -119.5c48 -12 92.167 -33.5 132.5 -64.5s73.666 -74.667 99.999 -131s39.5 -124.5 39.5 -204.5c0 -60.667 -15.333 -129.5 -46 -206.5s-84.5 -144.5 -161.5 -202.5s-178.5 -87 -304.5 -87c-57.333 0 -124.666 14 -201.999 42
s-147.166 79.167 -209.499 153.5s-95.833 174.5 -100.5 300.5h256c22 -86.667 55.333 -148.334 100 -185.001s91.334 -55 140.001 -55c28 0 60 9 96 27s67.833 44.333 95.5 79s43.834 74 48.501 118c0.666992 6.66699 1 16.667 1 30c0 96 -30.167 160.333 -90.5 193
s-142.5 49 -246.5 49v256c16 -1.33301 28 -2 36 -2c55.333 0 101.333 14.167 138 42.5s55 64.833 55 109.5c0 15.333 -1.66699 29.333 -5 42c-6.66699 27.333 -21.834 48.666 -45.501 63.999s-50.5 23 -80.5 23c-21.333 0 -43 -4.5 -65 -13.5s-40.333 -22.667 -55 -41
s-23.334 -39.833 -26.001 -64.5h-256z" />
    <glyph glyph-name="four" unicode="4" 
d="M688 1504h224v-1008h160v-256h-160v-240h-272v240h-640v240zM640 1040l-352 -544h352v544z" />
    <glyph glyph-name="five" unicode="5" 
d="M224 1504h687.995v-256h-480l-48 -272c56.667 25.333 117 38 181 38c82.667 0 161.834 -20.333 237.501 -61s136.834 -98.167 183.501 -172.5s70 -158.5 70 -252.5c0 -82 -12.833 -158.5 -38.5 -229.5s-60.667 -132.167 -105 -183.5s-95.666 -91.333 -153.999 -120
s-119.166 -43 -182.499 -43c-72 0 -142.833 9.66699 -212.5 29s-137.667 65.333 -204 138s-114.166 182.334 -143.499 329.001h272c10 -78.667 37 -133.834 81 -165.501s94.333 -47.5 151 -47.5c45.333 0 85.333 7 120 21c45.333 20 81 53.5 107 100.5s39 97.167 39 150.5
c0 60 -16.667 109.667 -50 149c-52 58.667 -118.333 88 -199 88c-42 0 -82.333 -9 -121 -27s-70.667 -43.667 -96 -77l-224 80z" />
    <glyph glyph-name="six" unicode="6" 
d="M592 1504l303.999 -0.00195312l-336 -512c7.33301 0.666992 18.333 1 33 1c66.667 0 130.167 -10.667 190.5 -32s113.5 -52 159.5 -92s81.833 -88 107.5 -144s38.5 -118.333 38.5 -187c0 -5.33301 -0.166992 -9.83301 -0.5 -13.5s-0.5 -7.83398 -0.5 -12.501
c-5.33301 -102 -30 -194.5 -74 -277.5s-106.167 -148.167 -186.5 -195.5s-174.833 -71 -283.5 -71c-85.333 0 -167.666 25.833 -246.999 77.5s-143.5 117.834 -192.5 198.501s-73.5 162.334 -73.5 245.001c0 4 0.166992 7.5 0.5 10.5s0.5 7.16699 0.5 12.5
c0 61.333 8.66699 117.833 26 169.5s41 101.834 71 150.501s83 128.667 159 240zM543.999 751.998c-40.667 0 -78.501 -11.167 -113.501 -33.5s-62.5 -52.833 -82.5 -91.5s-30 -80.334 -30 -125.001c0 -36.667 5.83301 -70.667 17.5 -102s29.834 -58.833 54.501 -82.5
s52.5 -41 83.5 -52s63.833 -16.5 98.5 -16.5c63.333 0 118.833 17.667 166.5 53s73.5 84 77.5 146c0.666992 6.66699 1 16.334 1 29.001c0 54 -11.667 102 -35 144s-54 74.5 -92 97.5s-78.667 34.5 -122 34.5c-10.667 0 -18.667 -0.333008 -24 -1z" />
    <glyph glyph-name="seven" unicode="7" 
d="M128 1504h880v-288l-528 -1216h-288l544 1248h-608v256z" />
    <glyph glyph-name="eight" unicode="8" 
d="M864 832c54 -26.667 102.666 -70.666 145.999 -131.999s65 -135 65 -221c0 -100 -33 -206.333 -99 -319c-36.667 -60.667 -92.667 -109.167 -168 -145.5s-156.666 -54.5 -243.999 -54.5c-54 0 -107.5 8.16699 -160.5 24.5s-102 41.833 -147 76.5
s-82.5 78.334 -112.5 131.001c-24 41.333 -42.667 86.666 -56 135.999s-20 97.666 -20 144.999c0 77.333 17.667 147.666 53 210.999s91 112.666 167 147.999c-28 22 -56 58.667 -84 110s-42 109.333 -42 174c0 110 47.333 218 142 324c26.667 30.667 63.834 55 111.501 73
s99.5 27 155.5 27c55.333 0 108.166 -9.33301 158.499 -28s95.166 -48 134.499 -88c22.667 -22.667 43.334 -51.167 62.001 -85.5s33.167 -71.666 43.5 -111.999s15.5 -80.166 15.5 -119.499c0 -54.667 -9.83301 -105.667 -29.5 -153s-50.167 -88 -91.5 -122zM415.999 1136
c0 -51.333 13.333 -93.501 40 -126.501s66.667 -49.5 120 -49.5c52.667 0 92.5 15.667 119.5 47s40.5 69 40.5 113c0 40.667 -14.833 74.834 -44.5 102.501s-68.167 41.5 -115.5 41.5c-46 0 -84.167 -13 -114.5 -39s-45.5 -55.667 -45.5 -89zM351.999 384
c15.333 -54 43.001 -95.498 83.001 -124.498s84.333 -43.5 133 -43.5c48 0 92.167 14.667 132.5 44s68.166 70.666 83.499 123.999c6 24 9 46.667 9 68c0 67.333 -24.167 123.5 -72.5 168.5s-101.833 67.5 -160.5 67.5c-36.667 0 -72 -10 -106 -30
s-61.167 -47.333 -81.5 -82s-30.5 -74 -30.5 -118c0 -24.667 3.33301 -49.334 10 -74.001z" />
    <glyph glyph-name="nine" unicode="9" 
d="M32 960c4 86 17.501 163.003 40.501 231.003s56.667 126.833 101 176.5s100 87.5 167 113.5s145.5 39 235.5 39c80 0 159.167 -20.833 237.5 -62.5s142.166 -100.834 191.499 -177.501s74 -165.667 74 -267c0 -70.667 -13.833 -145.834 -41.5 -225.501
s-69.5 -160.834 -125.5 -243.501l-368 -544h-336l336 480c-109.333 0 -202.833 25.333 -280.5 76s-135.667 113.5 -174 188.5s-57.5 146.833 -57.5 215.5zM320.001 992.003c0 -52 11 -97 33 -135s51 -66.667 87 -86s74.667 -29 116 -29c66 0 123.167 23.5 171.5 70.5
s72.5 112.167 72.5 195.5c0 75.333 -23.167 133.833 -69.5 175.5s-101.833 62.5 -166.5 62.5c-42.667 0 -82.5 -9.66699 -119.5 -29s-67 -48.5 -90 -87.5s-34.5 -84.833 -34.5 -137.5z" />
    <glyph glyph-name="colon" unicode=":" horiz-adv-x="576" 
d="M128 1024h288v-272h-288v272zM128 272h288v-272h-288v272z" />
    <glyph glyph-name="semicolon" unicode=";" horiz-adv-x="576" 
d="M160 752v288h272v-288h-272zM144 288h288c0 -28 0.333008 -53.667 1 -77v-87c0 -98 -6 -174.167 -18 -228.5s-39 -97.5 -81 -129.5s-105.333 -50 -190 -54v144c5.33301 -1.33301 13.333 -2 24 -2c30.667 0 56 10.833 76 32.5s30 50.167 30 85.5
c0 12 -0.666992 21.333 -2 28h-128v288z" />
    <glyph glyph-name="less" unicode="&#x3c;" horiz-adv-x="1216" 
d="M112 768l1024 464v-240l-720 -336l736 -320v-240l-1040 464v208z" />
    <glyph glyph-name="equal" unicode="=" horiz-adv-x="1216" 
d="M112 976h1024v-240h-1024v240zM112 576h1024v-240h-1024v240z" />
    <glyph glyph-name="greater" unicode="&#x3e;" horiz-adv-x="1216" 
d="M64 1200l1040 -464v-224l-1024 -432v224l736 320l-752 336v240z" />
    <glyph glyph-name="question" unicode="?" 
d="M64 1056c-2 8.66699 -2.99902 20.333 -2.99902 35c0 54 14.333 112.5 43 175.5s81.667 118.333 159 166s181.666 71.5 312.999 71.5c64 0 122.167 -11.833 174.5 -35.5s97 -56.334 134 -98.001s64.833 -87.5 83.5 -137.5s28 -100.333 28 -151
c0 -45.333 -6.66699 -86 -20 -122c-16.667 -48.667 -36.5 -86.334 -59.5 -113.001s-61.5 -66.167 -115.5 -118.5s-92.167 -99.166 -114.5 -140.499s-33.5 -92.666 -33.5 -153.999c0 -15.333 1 -32 3 -50h-272c2 10.667 3 24 3 40v36c-0.666992 10 -1 21 -1 33
c0 55.333 9.66699 108.666 29 159.999s57 100.333 113 147c122.667 99.333 184 191.333 184 276c0 48.667 -19.833 88 -59.5 118s-85.5 45 -137.5 45c-50 0 -92.333 -15.167 -127 -45.5s-52 -76.166 -52 -137.499h-272zM400.001 255.999h256v-256h-256v256z" />
    <glyph glyph-name="at" unicode="@" horiz-adv-x="1504" 
d="M16 928c28 118 81.168 222.167 159.501 312.5s171.5 159.833 279.5 208.5s219 73 333 73c108 0 208 -22 300 -66c78.667 -37.333 149.667 -86.833 213 -148.5s112.833 -131.334 148.5 -209.001s53.5 -158.834 53.5 -243.501c0 -77.333 -15.667 -154.333 -47 -231
c-47.333 -111.333 -111.166 -193.666 -191.499 -246.999s-160.833 -80 -241.5 -80c-50 0 -91.667 9.66699 -125 29s-50 44 -50 74c-20.667 -30 -49.667 -53.833 -87 -71.5s-76 -26.5 -116 -26.5c-64.667 0 -125.334 19.333 -182.001 58s-99 94.667 -127 168
c-18 49.333 -27 100.666 -27 153.999c0 68 14.167 132 42.5 192s66.833 111.833 115.5 155.5s101 73.834 157 90.501c26 8 56 12 90 12c59.333 0 113.666 -12 162.999 -36s82.333 -58.667 99 -104l32 112h192l-112 -640c16 -4 31 -6 45 -6c45.333 0 84.333 16.833 117 50.5
s57.5 78.667 74.5 135s25.5 119.166 25.5 188.499c0 32 -2 64 -6 96c-11.333 86 -42 162.833 -92 230.5s-115.667 120.834 -197 159.501s-171.666 58 -270.999 58c-133.333 0 -249.833 -31.833 -349.5 -95.5s-180.5 -165.167 -242.5 -304.5
c-31.333 -66.667 -47 -140.667 -47 -222c0 -72 13.667 -144.833 41 -218.5s69.666 -141.667 126.999 -204s129 -114.166 215 -155.499c77.333 -32.667 161.333 -49 252 -49c84 0 164.667 13.833 242 41.5s142 67.5 194 119.5h192c-178 -210 -383.667 -315 -617 -315
c-122.667 0 -247.667 30.333 -375 91c-80 42.667 -151.333 98.167 -214 166.5s-112.167 147.333 -148.5 237s-54.5 186.167 -54.5 289.5c0 58 5.66699 115 17 171zM608.001 576c30.667 -36.667 67.666 -55 110.999 -55c49.333 0 92.333 18.333 129 55
c14.667 14.667 31.334 38 50.001 70s28 66.333 28 103c0 41.333 -15.333 79.666 -46 114.999c-28 34 -64 51 -108 51c-25.333 0 -50.833 -5.66699 -76.5 -17s-44.167 -22.666 -55.5 -33.999c-46.667 -46.667 -70 -99 -70 -157c0 -41.333 12.667 -85 38 -131z" />
    <glyph glyph-name="A" unicode="A" horiz-adv-x="1504" 
d="M640 1504h208l640 -1504h-304l-160 384h-544l-160 -384h-304zM752 1088l-160 -432h320z" />
    <glyph glyph-name="B" unicode="B" horiz-adv-x="1184" 
d="M144 1504l384 0.00195312c80 0 152 -11 216 -33s118.5 -52.333 163.5 -91s78.333 -80.334 100 -125.001s32.5 -89.667 32.5 -135c0 -82 -13.167 -143.833 -39.5 -185.5s-66.5 -75.834 -120.5 -102.501c86 -39.333 150.167 -93.166 192.5 -161.499
s63.5 -147.833 63.5 -238.5c0 -49.333 -11.5 -99.5 -34.5 -150.5s-57.833 -97.833 -104.5 -140.5s-105.5 -76.834 -176.5 -102.501s-152.5 -38.5 -244.5 -38.5h-432v1504zM432 1232l0.000976562 -304.001c66.667 0 119.167 1.83301 157.5 5.5s69.666 11.334 93.999 23.001
s41.833 29.167 52.5 52.5s16 55 16 95c0 50.667 -28.833 84.667 -86.5 102s-135.5 26 -233.5 26zM432.001 640.001v-352.002c48 -2.66699 82 -4 102 -4c100 0 177.333 13.833 232 41.5s82 73.834 82 138.501s-27.333 110.834 -82 138.501s-132 41.5 -232 41.5
c-20 0 -54 -1.33301 -102 -4z" />
    <glyph glyph-name="C" unicode="C" horiz-adv-x="1584" 
d="M48 784c4 63.333 23.502 137.165 58.502 221.498s84.667 165.833 149 244.5s143.333 143.334 237 194.001s199.167 76 316.5 76h23c88.667 0 181.5 -19 278.5 -57s184.5 -92.5 262.5 -163.5s132.333 -152.167 163 -243.5h-320c-58.667 64 -120.5 111.333 -185.5 142
s-131.5 46 -199.5 46c-85.333 0 -166.5 -23.5 -243.5 -70.5s-138.167 -108.5 -183.5 -184.5s-68 -155 -68 -237c0 -93.333 27 -179.5 81 -258.5s123.167 -141.167 207.5 -186.5s169.166 -68 254.499 -68c63.333 0 121.166 13 173.499 39s96.166 66.667 131.499 122h336
c-36.667 -100 -95.167 -182.833 -175.5 -248.5s-167.666 -113 -261.999 -142s-179.833 -43.5 -256.5 -43.5c-10.667 0 -24.667 0.666992 -42 2c-100.667 8 -196 32.333 -286 73s-168.167 95.167 -234.5 163.5s-118.833 151.833 -157.5 250.5s-58 208.334 -58 329.001z" />
    <glyph glyph-name="D" unicode="D" horiz-adv-x="1424" 
d="M384 1504c116.667 0 225.166 -7.33301 325.499 -22s197.5 -45.834 291.5 -93.501s171.833 -118.167 233.5 -211.5s98.167 -213.666 109.5 -360.999c0.666992 -10.667 1 -27.667 1 -51c0 -86 -11.667 -171.833 -35 -257.5s-65 -167.167 -125 -244.5
s-144.667 -140.5 -254 -189.5s-243.666 -73.5 -402.999 -73.5h-400v1504h256zM415.999 1232l-0.000976562 -944c50.667 -10 101 -15 151 -15c142.667 0 259.834 39.667 351.501 119s137.5 194 137.5 344c0 181.333 -49.833 309.333 -149.5 384s-263.167 112 -490.5 112z" />
    <glyph glyph-name="E" unicode="E" horiz-adv-x="1056" 
d="M128 1504h800v-272h-528v-368h512v-256h-512v-352h528v-256h-800v1504z" />
    <glyph glyph-name="F" unicode="F" horiz-adv-x="976" 
d="M128 1504h752v-272h-464v-336h448v-272h-448v-624h-288v1504z" />
    <glyph glyph-name="G" unicode="G" horiz-adv-x="1712" 
d="M816 1520c74 0 142.339 -4.00195 205.006 -12.002s128 -26.833 196 -56.5s134 -76.667 198 -141s120.333 -149.166 169 -254.499h-352c-40 60.667 -94.167 107 -162.5 139s-141.833 48 -220.5 48c-83.333 0 -163.333 -18.167 -240 -54.5s-138.667 -90.666 -186 -162.999
s-71 -158.166 -71 -257.499c2.66699 -106 29.167 -198.5 79.5 -277.5s114.666 -138.667 192.999 -179s161.166 -60.5 248.499 -60.5c55.333 0 110.333 9 165 27s104 45.333 148 82s80.667 82 110 136h-624v256h976c0 -4 0.166992 -8 0.5 -12s0.5 -9 0.5 -15
c0 -95.333 -19.333 -187.833 -58 -277.5s-93.334 -169.834 -164.001 -240.501s-154.667 -127.167 -252 -169.5s-201 -65.5 -311 -69.5h-27c-108 0 -210.333 21.833 -307 65.5s-181.334 103.667 -254.001 180s-128.834 162.5 -168.501 258.5s-59.5 194.667 -59.5 296
c0 100.667 21.167 196 63.5 286s100.666 169.667 174.999 239s157.333 123.5 249 162.5s185.167 60.5 280.5 64.5z" />
    <glyph glyph-name="H" unicode="H" horiz-adv-x="1376" 
d="M144 1504h272v-592h544v592h272v-1504h-272v640h-544v-640h-272v1504z" />
    <glyph glyph-name="I" unicode="I" horiz-adv-x="576" 
d="M128 1504h288v-1504h-288v1504z" />
    <glyph glyph-name="J" unicode="J" horiz-adv-x="976" 
d="M560 416v1088h272v-1152c0 -119.333 -31.167 -211.166 -93.5 -275.499s-153.833 -100.5 -274.5 -108.5c-7.33301 -0.666992 -18.333 -1 -33 -1c-54.667 0 -106.5 9.16699 -155.5 27.5s-93 44.833 -132 79.5s-70.667 75.667 -95 123s-40.5 99 -48.5 155h288
c4 -39.333 18.667 -71 44 -95s54.333 -36 87 -36c38 0 71 16.833 99 50.5s42 81.834 42 144.501z" />
    <glyph glyph-name="K" unicode="K" horiz-adv-x="1264" 
d="M144 1504h272v-624l480 624h336l-576 -736l560 -768h-352l-448 640v-640h-272v1504z" />
    <glyph glyph-name="L" unicode="L" horiz-adv-x="896" 
d="M144 1504h272v-1232h448v-272h-720v1504z" />
    <glyph glyph-name="M" unicode="M" horiz-adv-x="1824" 
d="M128 0v1504h384l416 -1152l416 1152h368v-1504h-288v1088l-384 -1088h-224l-400 1088v-1088h-288z" />
    <glyph glyph-name="N" unicode="N" horiz-adv-x="1504" 
d="M128 1504h304l640 -1104v1104h272v-1504h-304l-624 1088v-1088h-288v1504z" />
    <glyph glyph-name="O" unicode="O" horiz-adv-x="1712" 
d="M64 720c4 144 31.666 268.166 82.999 372.499s116.333 187.5 195 249.5s163.834 107.167 255.501 135.5s180.5 42.5 266.5 42.5c116.667 0 224.167 -23.333 322.5 -70s182.5 -108.167 252.5 -184.5s123.167 -158 159.5 -245s54.5 -170.5 54.5 -250.5
c0 -20.667 -1.66699 -42.667 -5 -66c-9.33301 -82 -29.5 -164.833 -60.5 -248.5s-77.5 -162.5 -139.5 -236.5s-144.167 -134.333 -246.5 -181s-225.5 -70 -369.5 -70c-132 0 -247.5 26.333 -346.5 79s-178.833 118.334 -239.5 197.001s-106.167 161.167 -136.5 247.5
s-45.5 162.5 -45.5 228.5zM351.999 719.999c4.66699 -108.667 32.1689 -199.165 82.502 -271.498s111.5 -125.166 183.5 -158.499s143.333 -50 214 -50c66 0 130 14.167 192 42.5s117.333 67.5 166 117.5s86.5 105.333 113.5 166s40.5 122.667 40.5 186
c0 81.333 -19.167 159.166 -57.5 233.499s-94 135.5 -167 183.5s-158.167 74.333 -255.5 79c-61.333 0 -120.833 -8.66699 -178.5 -26s-110.834 -45.833 -159.501 -85.5s-88.834 -94.334 -120.501 -164.001s-49.5 -153.834 -53.5 -252.501z" />
    <glyph glyph-name="P" unicode="P" 
d="M128 0l-0.000976562 1504h416c106 0 195 -15 267 -45s128.167 -69.167 168.5 -117.5s68.5 -99.666 84.5 -153.999s24 -108.833 24 -163.5c0 -86.667 -18.833 -165.167 -56.5 -235.5s-91.667 -126 -162 -167s-152.166 -61.5 -245.499 -61.5h-224v-560h-272z
M415.999 815.999c22 -3.33301 46.332 -5 72.999 -5c52 0 102.667 6.16699 152 18.5s90.833 34.5 124.5 66.5s50.5 74.667 50.5 128c-4.66699 62.667 -27.5 109.5 -68.5 140.5s-87.667 50 -140 57s-116.166 10.5 -191.499 10.5v-416z" />
    <glyph glyph-name="Q" unicode="Q" horiz-adv-x="1712" 
d="M816 1536c138 -2 260.997 -27.166 368.997 -75.499s197.5 -111.5 268.5 -189.5s124.167 -164.833 159.5 -260.5s53 -193.167 53 -292.5c0 -91.333 -14.833 -176.833 -44.5 -256.5s-74.167 -148.167 -133.5 -205.5c15.333 -15.333 40.666 -27.166 75.999 -35.499
s74 -12.5 116 -12.5v-256c-77.333 0 -151.833 9 -223.5 27s-125.167 51.667 -160.5 101c-33.333 -20.667 -66 -38 -98 -52s-65 -25.167 -99 -33.5s-74.833 -14.833 -122.5 -19.5s-101.167 -7 -160.5 -7c-121.333 6 -230.666 31.667 -327.999 77
s-178.666 105.5 -243.999 180.5s-114.333 157.667 -147 248s-49 184.166 -49 281.499c0 95.333 16.167 188 48.5 278s80.833 171.667 145.5 245s145.334 132.666 242.001 177.999s207.334 72 332.001 80zM1248 416.001c24 10.667 44.9971 30.168 62.9971 58.501
s32.167 64 42.5 107s15.5 85.833 15.5 128.5c0 75.333 -14.333 149.333 -43 222s-74.667 137.667 -138 195s-144.666 97.666 -243.999 120.999c-16.667 3.33301 -34.667 5 -54 5c-69.333 0 -146.166 -17.333 -230.499 -52s-157 -91 -218 -169s-91.5 -177.667 -91.5 -299
c0 -8.66699 0.666992 -23.667 2 -45c64.667 8.66699 128.667 13 192 13c88.667 0 172.834 -10.167 252.501 -30.5s156.167 -51.5 229.5 -93.5s147.333 -95.667 222 -161zM447.994 464.002c4.66699 -22.667 27.3311 -51.832 67.998 -87.499s91.834 -66.834 153.501 -93.501
s124.167 -40 187.5 -40c64.667 0 125.667 15 183 45c-62 50 -130.667 92.667 -206 128s-172.666 53 -291.999 53c-26 0 -57.333 -1.66699 -94 -5z" />
    <glyph glyph-name="R" unicode="R" horiz-adv-x="1184" 
d="M528 1504c118.667 0 221.832 -13 309.499 -39s159.334 -78 215.001 -156s83.5 -189 83.5 -333c0 -58 -13 -117.167 -39 -177.5s-68.667 -112.5 -128 -156.5s-137 -71.333 -233 -82l400 -560h-336l-400 576v-576h-272v1504h400zM399.998 1216l-0.000976562 -431.999h78
c18.667 -0.666992 39.334 -1 62.001 -1c73.333 0 132.5 5.33301 177.5 16s80.667 33.5 107 68.5s39.5 87.167 39.5 156.5c0 78.667 -31.5 130.667 -94.5 156s-145.167 38 -246.5 38h-69c-16.667 -0.666992 -34.667 -1.33398 -54 -2.00098z" />
    <glyph glyph-name="S" unicode="S" horiz-adv-x="1056" 
d="M80 1104c0 59.333 11.1689 115.166 33.502 167.499s54.166 98.666 95.499 138.999s89 71.333 143 93s112.667 32.5 176 32.5c32.667 0 71.667 -5.5 117 -16.5s92 -31.333 140 -61s90 -73.834 126 -132.501s57.667 -132.667 65 -222h-304
c-6.66699 49.333 -24.334 86.5 -53.001 111.5s-61.667 37.5 -99 37.5c-40.667 0 -77 -13.5 -109 -40.5s-48 -61.167 -48 -102.5c0 -10.667 1.66699 -23.334 5 -38.001c13.333 -47.333 58 -90 134 -128l231.5 -113c78.333 -37.333 143.666 -86.833 195.999 -148.5
s78.5 -145.167 78.5 -250.5c0 -80 -15.167 -149.667 -45.5 -209s-70.166 -107.666 -119.499 -144.999s-103 -65 -161 -83s-114.667 -27 -170 -27c-92 0 -174.333 18.667 -247 56s-131.167 91.333 -175.5 162s-68.833 152.667 -73.5 246h304c4 -64.667 25 -113.167 63 -145.5
s83.333 -48.5 136 -48.5c48 0 91.5 12 130.5 36s62.5 55.333 70.5 94c4 20.667 6 40.334 6 59.001c0 70 -22.5 118.833 -67.5 146.5s-123 63.334 -234 107.001s-195.333 95.334 -253 155.001s-88.167 149.167 -91.5 268.5z" />
    <glyph glyph-name="T" unicode="T" horiz-adv-x="848" 
d="M0 1248v256h832v-256h-272v-1248h-288v1248h-272z" />
    <glyph glyph-name="U" unicode="U" horiz-adv-x="1296" 
d="M144 448l-0.000976562 1056h272v-1024c0 -76 22.833 -136 68.5 -180s98.834 -66 159.501 -66c37.333 0 73 9.33301 107 28s61.333 46.5 82 83.5s31 81.833 31 134.5v1024h288v-1056c0.666992 -6 1 -14.667 1 -26c0 -76.667 -21.167 -148.5 -63.5 -215.5
s-101.5 -120.833 -177.5 -161.5s-161.333 -61 -256 -61c-156 0 -280.333 40.167 -373 120.5s-139 194.833 -139 343.5z" />
    <glyph glyph-name="V" unicode="V" horiz-adv-x="1424" 
d="M608 0l-608 1504h304l416 -1152l416 1152h272l-576 -1504h-224z" />
    <glyph glyph-name="W" unicode="W" horiz-adv-x="1824" 
d="M0 1504h288l256 -1040l256 1040h208l256 -1040l256 1040h288l-432 -1504h-224l-240 992l-256 -992h-224z" />
    <glyph glyph-name="X" unicode="X" horiz-adv-x="1376" 
d="M528 768l-528 736h352l336 -512l352 512h320l-512 -736l512 -768h-336l-336 512l-352 -512h-320z" />
    <glyph glyph-name="Y" unicode="Y" horiz-adv-x="1264" 
d="M16 1504h288l336 -688l336 688h288l-480 -944v-560h-288v560z" />
    <glyph glyph-name="Z" unicode="Z" horiz-adv-x="1024" 
d="M64 1248v256h864v-256l-560 -976h592v-272h-928v256l560 992h-528z" />
    <glyph glyph-name="bracketleft" unicode="[" horiz-adv-x="656" 
d="M160 992c0 100.667 23.166 191.669 69.499 273.002s104.5 145.5 174.5 192.5s138 73.167 204 78.5v-304c-48 -14.667 -84.333 -34.334 -109 -59.001s-40.834 -50.834 -48.501 -78.501s-12.167 -59.834 -13.5 -96.501c-1.33301 -37.333 -3 -60.666 -5 -69.999
c-4.66699 -25.333 -7 -85.333 -7 -180c0 -42.667 0.666992 -91 2 -145c0.666992 -54 1.33398 -100.333 2.00098 -139s1.33398 -70.667 2.00098 -96s1 -52 1 -80c0 -46 16.167 -93.833 48.5 -143.5s69.5 -87.167 111.5 -112.5v-304c-58 13.333 -120.5 42.5 -187.5 87.5
s-124.5 105.167 -172.5 180.5s-72 162 -72 260v736z" />
    <glyph glyph-name="backslash" unicode="\" horiz-adv-x="1296" 
d="M800 0l-640 1520h224l640 -1520h-224z" />
    <glyph glyph-name="bracketright" unicode="]" horiz-adv-x="656" 
d="M64 1248l-0.000976562 271.998c39.333 0 84.5 -14.667 135.5 -44s100.667 -68.833 149 -118.5s87.666 -102.667 117.999 -159s45.5 -109.166 45.5 -158.499v-656c0 -87.333 -10.167 -168 -30.5 -242s-50.666 -139.833 -90.999 -197.5s-88 -103.5 -143 -137.5
s-116.167 -55 -183.5 -63v272c54 32.667 96.833 66.667 128.5 102s47.5 81.333 47.5 138v672c0 45.333 -3.83301 82.5 -11.5 111.5s-23.667 58.833 -48 89.5s-63.166 70.334 -116.499 119.001z" />
    <glyph glyph-name="asciicircum" unicode="^" horiz-adv-x="1216" 
d="M496 1520h256l352 -768l-208 -112l-272 592l-272 -576l-224 96z" />
    <glyph glyph-name="underscore" unicode="_" horiz-adv-x="1024" 
d="M-16 -96h1024v-176h-1024v176z" />
    <glyph glyph-name="grave" unicode="`" horiz-adv-x="848" 
d="M272 1744l448 -288l-112 -192l-464 272z" />
    <glyph glyph-name="a" unicode="a" horiz-adv-x="1344" 
d="M64 576c6.66699 101.333 26.502 190.001 59.502 266.001s74.5 137.5 124.5 184.5s105.167 81.667 165.5 104s122.833 33.5 187.5 33.5c85.333 0 165.666 -18.333 240.999 -55s130.666 -86.334 165.999 -149.001v176h256v-1152h-256v144
c-38.667 -54.667 -93.667 -97.667 -165 -129s-144.333 -47 -219 -47c-82.667 0 -158.5 15.833 -227.5 47.5s-128.167 75.5 -177.5 131.5s-87.5 122.333 -114.5 199s-40.5 158.667 -40.5 246zM672.002 224.001c122 7.33301 208.498 39.501 259.498 96.501
s76.5 136.833 76.5 239.5c0 66 -15.5 124.833 -46.5 176.5s-72.167 91.167 -123.5 118.5s-106.666 41 -165.999 41s-114.666 -13.667 -165.999 -41s-92.5 -66.833 -123.5 -118.5s-46.5 -110.5 -46.5 -176.5c0 -70.667 16.167 -131.334 48.5 -182.001s74.333 -89 126 -115
s105.5 -39 161.5 -39z" />
    <glyph glyph-name="b" unicode="b" horiz-adv-x="1344" 
d="M1152 960c35.333 -33.333 64.1689 -69.8359 86.502 -109.503s39.333 -83.167 51 -130.5s17.5 -95 17.5 -143c0 -89.333 -18.833 -178.166 -56.5 -266.499s-91.834 -165.166 -162.501 -230.499c-32.667 -32.667 -79.167 -58.667 -139.5 -78s-124.5 -29 -192.5 -29
c-81.333 0 -157 14.333 -227 43s-123.667 71.334 -161 128.001v-144h-256v1504h256v-480c118 86.667 242.333 130 373 130c84 0 162.667 -17.667 236 -53s131.666 -82.333 174.999 -141zM448.003 351.997c36 -40.667 76.667 -70.999 122 -90.999s92.333 -30 141 -30
c78.667 0 145.667 24.333 201 73c34.667 30.667 62 70.334 82 119.001s30 100 30 154c0 33.333 -4.5 65.833 -13.5 97.5s-23.167 61 -42.5 88s-43.333 50.167 -72 69.5c-68 48 -139.333 72 -214 72c-72.667 0 -140 -24 -202 -72c-36 -26.667 -65 -64.834 -87 -114.501
s-33 -100.834 -33 -153.501c0 -89.333 29.333 -160 88 -212z" />
    <glyph glyph-name="c" unicode="c" horiz-adv-x="1296" 
d="M672 1168c98.667 0 187.499 -22.3311 266.499 -66.998s143.167 -100.334 192.5 -167.001s83 -132.667 101 -198h-304c-24 106.667 -114.667 160 -272 160c-65.333 0 -122.166 -18.5 -170.499 -55.5s-85.333 -82.833 -111 -137.5s-38.5 -107.667 -38.5 -159
c4.66699 -88 41.334 -160.333 110.001 -217s145.667 -85 231 -85c105.333 0 189 42 251 126h304c-44 -122.667 -110 -220 -198 -292s-203.333 -108 -346 -108c-6 0 -10.833 -0.166992 -14.5 -0.5s-7.83398 -0.5 -12.501 -0.5c-89.333 0 -170.666 17 -243.999 51
s-136 80.167 -188 138.5s-91.5 120 -118.5 185s-42.5 127.167 -46.5 186.5c0 6 -0.166992 11 -0.5 15s-0.5 8.33301 -0.5 13c0 87.333 17 169.166 51 245.499s80.667 142 140 197s125.166 97 197.499 126s145.833 43.5 220.5 43.5z" />
    <glyph glyph-name="d" unicode="d" horiz-adv-x="1344" 
d="M976 1040l0.000976562 464.001h272v-1504h-256v160c-36 -64.667 -91 -112.834 -165 -144.501s-141.667 -47.5 -203 -47.5c-95.333 0 -187.833 26.333 -277.5 79s-161.834 124.5 -216.501 215.5s-82 190.167 -82 297.5c0 120.667 28.5 227.667 85.5 321
s131.167 164.5 222.5 213.5s186 73.5 284 73.5c80.667 0 142.667 -9.5 186 -28.5s93.333 -52.167 150 -99.5zM336.001 576.001c0 -70.667 15.499 -131.501 46.499 -182.501s71.333 -89.333 121 -115s102.167 -38.5 157.5 -38.5c85.333 0 160 28.833 224 86.5
s99.667 140.834 107 249.501c0.666992 6.66699 1 16 1 28c0 60 -15.167 112.667 -45.5 158s-70.5 79.833 -120.5 103.5s-102.333 35.5 -157 35.5c-86.667 0 -162.167 -27.667 -226.5 -83s-100.166 -136 -107.499 -242z" />
    <glyph glyph-name="e" unicode="e" horiz-adv-x="1296" 
d="M64 576c0 84 19.5029 170.501 58.5029 259.501s103.167 164 192.5 225s203 91.5 341 91.5c112.667 0 213.334 -23.667 302.001 -71s157.5 -117.166 206.5 -209.499s73.5 -202.5 73.5 -330.5c0 -34.667 -2 -71 -6 -109h-864c24 -61.333 64.333 -109.666 121 -144.999
s118.667 -53 186 -53c96 0 175 34 237 102h288c-20.667 -68.667 -55.334 -131.334 -104.001 -188.001s-108.5 -102.334 -179.5 -137.001s-147.167 -54.334 -228.5 -59.001c-5.33301 0 -9.83301 -0.166992 -13.5 -0.5s-7.5 -0.5 -11.5 -0.5
c-80.667 0 -157.834 16.333 -231.501 49s-138.334 77 -194.001 133s-98.834 118.667 -129.501 188s-46 139 -46 209c0 20.667 0.666992 36 2 46zM672.003 880.001c-60.667 0 -114.333 -10.167 -161 -30.5s-84.5 -46 -113.5 -77s-49.5 -64.5 -61.5 -100.5h624
c-18 54 -49.5 102.333 -94.5 145s-100.5 64 -166.5 64c-12 0 -21 -0.333008 -27 -1z" />
    <glyph glyph-name="f" unicode="f" horiz-adv-x="576" 
d="M128 1136l16.5 101.999c7.66699 47.333 22.667 92.333 45 135s57.333 78.667 105 108s110.5 44 188.5 44c21.333 0 47 -1.66699 77 -5v-240c-54.667 0 -95.667 -11.667 -123 -35s-45 -59.666 -53 -108.999h160v-240h-160v-896h-256v896h-96v240h96z" />
    <glyph glyph-name="g" unicode="g" horiz-adv-x="1344" 
d="M48 608c7.33301 88.667 30.165 168.001 68.498 238.001s86.833 127.667 145.5 173s122 79.166 190 101.499s135.333 33.5 202 33.5c71.333 0 136 -12.667 194 -38s100.667 -61.333 128 -108v128h256v-1008c0 -126 -26.167 -232.833 -78.5 -320.5s-121.5 -153 -207.5 -196
s-178.667 -64.5 -278 -64.5c-83.333 0 -164 14.5 -242 43.5s-147.333 71.667 -208 128s-106.667 123.5 -138 201.5h304c27.333 -38 67.166 -70.167 119.499 -96.5s106.5 -39.5 162.5 -39.5c77.333 0 145.833 28.667 205.5 86s99.834 148.666 120.501 273.999
c-28.667 -41.333 -61.5 -75.666 -98.5 -102.999s-76.167 -47.5 -117.5 -60.5s-84.666 -19.5 -129.999 -19.5c-70.667 0 -141.667 15.333 -213 46s-136.166 74 -194.499 130s-104.833 122 -139.5 198s-52 155.333 -52 238c0 15.333 0.333008 27 1 35zM639.999 240.001
c74.667 2.66699 139.168 20.999 193.501 54.999s95 77.167 122 129.5s40.5 107.833 40.5 166.5c0 56.667 -12.833 109.334 -38.5 158.001s-63.834 88 -114.501 118s-113 45 -187 45c-69.333 0 -128.5 -16 -177.5 -48s-86 -74.167 -111 -126.5s-37.5 -107.833 -37.5 -166.5
c0 -90 27.333 -167.667 82 -233s130.667 -98 228 -98z" />
    <glyph glyph-name="h" unicode="h" horiz-adv-x="1216" 
d="M1104 784l-0.00195312 -783.999h-272v656c0 56 -10.167 103.5 -30.5 142.5s-47.333 68 -81 87s-69.834 28.5 -108.501 28.5c-41.333 0 -80.666 -10.167 -117.999 -30.5s-67.666 -50.333 -90.999 -90s-35 -85.5 -35 -137.5v-656h-272v1504h272v-464
c46 43.333 96.333 75.666 151 96.999s109.667 32 165 32c71.333 0 139.833 -16.5 205.5 -49.5s117.834 -79 156.501 -138s58 -124.833 58 -197.5z" />
    <glyph glyph-name="i" unicode="i" horiz-adv-x="480" 
d="M112 1504h272v-224h-272v224zM112 1136h272v-1136h-272v1136z" />
    <glyph glyph-name="j" unicode="j" horiz-adv-x="528" 
d="M128 1504h272v-224h-272v224zM400 1136v-960.001c0 -12.667 0.333008 -24.334 1 -35.001v-47c0 -61.333 -3.83301 -117.166 -11.5 -167.499s-23.334 -97.666 -47.001 -141.999s-60.667 -80.833 -111 -109.5s-116.833 -43 -199.5 -43v272
c22.667 0 40.834 5.83301 54.501 17.5s24 35.167 31 70.5s10.5 86 10.5 152v992h272z" />
    <glyph glyph-name="k" unicode="k" horiz-adv-x="1184" 
d="M384 1504v-864l352 496h336l-416 -544l480 -592h-368l-384 528v-528h-272v1504h272z" />
    <glyph glyph-name="l" unicode="l" horiz-adv-x="480" 
d="M112 1504h256v-1504h-256v1504z" />
    <glyph glyph-name="m" unicode="m" horiz-adv-x="1904" 
d="M112 1136l256 -0.000976562v-112c24.667 49.333 65.167 88.333 121.5 117s117.5 43 183.5 43c40.667 0 80.334 -6.33301 119.001 -19s74 -32.167 106 -58.5s58 -59.166 78 -98.499c42.667 54.667 98 97.167 166 127.5s138.667 45.5 212 45.5
c56 0 110.667 -9.16699 164 -27.5s100.333 -45 141 -80s73 -79.5 97 -133.5s36 -116.667 36 -188v-752h-272v624c0 63.333 -9.83301 116.666 -29.5 159.999s-45.334 75.5 -77.001 96.5s-66.167 31.5 -103.5 31.5c-62.667 0 -118 -26.167 -166 -78.5
s-72 -122.166 -72 -209.499v-624h-256v656c0 52 -10.833 97 -32.5 135s-50.5 67 -86.5 87s-73.667 30 -113 30c-37.333 0 -72.5 -9.33301 -105.5 -28s-59.667 -47 -80 -85s-30.5 -84.333 -30.5 -139v-656h-256v1136z" />
    <glyph glyph-name="n" unicode="n" horiz-adv-x="1216" 
d="M112 1120l240 0.00195312v-96c29.333 41.333 72 73.333 128 96s117.667 34 185 34c76 0 148.833 -15.333 218.5 -46s126.5 -77.334 170.5 -140.001s66 -140 66 -232v-736h-272v672c0 44.667 -11.833 84 -35.5 118s-54.667 59.833 -93 77.5s-77.5 26.5 -117.5 26.5
c-60.667 0 -112.167 -18.833 -154.5 -56.5s-63.5 -92.834 -63.5 -165.501v-672h-272v1120z" />
    <glyph glyph-name="o" unicode="o" horiz-adv-x="1296" 
d="M224 960c136.667 130 285.003 195 445.003 195c50.667 0 99 -6.33301 145 -19s88.667 -29.667 128 -51s77.333 -48.166 114 -80.499s68.667 -68.5 96 -108.5c74.667 -101.333 112 -213 112 -335c0 -70 -12.333 -139.333 -37 -208s-60.334 -133 -107.001 -193
c-28.667 -38 -65.334 -70.5 -110.001 -97.5s-94.5 -47.167 -149.5 -60.5s-110.833 -20 -167.5 -20c-60 0 -119.333 7.16699 -178 21.5s-113.334 36.333 -164.001 66s-93 65.167 -127 106.5c-102 124.667 -153 257.667 -153 399c0 135.333 51 263.666 153 384.999z
M432.003 784c-56 -66 -84.002 -142.332 -84.002 -228.999c0 -82.667 28 -155.667 84 -219c64.667 -77.333 143.334 -116 236.001 -116c49.333 0 96.833 11.5 142.5 34.5s79.5 50.167 101.5 81.5c48 64 72 138 72 222c0 40 -6.16699 78.167 -18.5 114.5
s-30.166 68.166 -53.499 95.499c-69.333 77.333 -154.333 116 -255 116c-91.333 0 -166.333 -33.333 -225 -100z" />
    <glyph glyph-name="p" unicode="p" horiz-adv-x="1344" 
d="M112 -384l-0.00195312 1504h256v-144c52 60 108.833 105.333 170.5 136s126.834 46 195.501 46c40.667 0 82.834 -6 126.501 -18s87 -30.167 130 -54.5s86.167 -55.5 129.5 -93.5c23.333 -20.667 46.333 -47.834 69 -81.501s41.5 -68.334 56.5 -104.001
s26.667 -74 35 -115s12.5 -84.833 12.5 -131.5c0 -155.333 -52.333 -288.666 -157 -399.999c-56.667 -56.667 -121.167 -100.834 -193.5 -132.501s-146.833 -47.5 -223.5 -47.5c-37.333 0 -75 4.16699 -113 12.5s-76 21.166 -114 38.499s-74 39 -108 65v-480h-272z
M383.998 704.003c-17.333 -41.333 -26.001 -84.332 -26.001 -128.999c0 -60.667 14.833 -117.5 44.5 -170.5s69.667 -95.5 120 -127.5s104.833 -48 163.5 -48c87.333 0 168 35.667 242 107c68 64 102 137.333 102 220c0 57.333 -16.167 111.666 -48.5 162.999
s-75.333 92.666 -129 123.999s-109.5 47 -167.5 47c-54.667 0 -108.167 -15.167 -160.5 -45.5s-99.166 -77.166 -140.499 -140.499z" />
    <glyph glyph-name="q" unicode="q" horiz-adv-x="1344" 
d="M288 1024c51.333 42.667 107.333 75.667 168 99s121.667 35 183 35c64.667 0 125.5 -13.333 182.5 -40s108.5 -68.667 154.5 -126v128h256v-1504h-256v480c-57.333 -42 -118.166 -73.833 -182.499 -95.5s-129.166 -32.5 -194.499 -32.5c-72 0 -140.333 13.5 -205 40.5
s-121.334 66.833 -170.001 119.5c-54 62 -95.333 131.167 -124 207.5s-43 153.833 -43 232.5c0 92 19.667 178.5 59 259.5s96.666 146.5 171.999 196.5zM336 560c0 -54 11.999 -107 35.999 -159s59.333 -94.667 106 -128s102.667 -50 168 -50c11.333 0 20 0.333008 26 1
c92 0 165.667 32.833 221 98.5s83 144.834 83 237.501c0 57.333 -14.333 110.666 -43 159.999s-67.667 88.333 -117 117s-102.666 43 -159.999 43c-53.333 0 -104.833 -13.5 -154.5 -40.5s-89.667 -65.333 -120 -115s-45.5 -104.5 -45.5 -164.5z" />
    <glyph glyph-name="r" unicode="r" horiz-adv-x="656" 
d="M96 0l0.000976562 1120h256v-80c37.333 37.333 75.5 66.166 114.5 86.499s91.5 34.166 157.5 41.499v-272c-74 -14 -126.333 -27.5 -157 -40.5s-54.834 -38.167 -72.501 -75.5s-26.5 -94.666 -26.5 -171.999v-608h-272z" />
    <glyph glyph-name="s" unicode="s" horiz-adv-x="896" 
d="M80 928c15.333 54.667 44.499 100.002 87.499 136.002s91.167 62.333 144.5 79s104 25 152 25c73.333 0 136.666 -14.167 189.999 -42.5s93.833 -67.833 121.5 -118.5s41.5 -108.334 41.5 -173.001c0 -14.667 -0.333008 -26 -1 -34h-256
c-15.333 40.667 -34.166 70.5 -56.499 89.5s-46.166 28.5 -71.499 28.5c-27.333 0 -51.166 -9.83301 -71.499 -29.5s-30.5 -42.5 -30.5 -68.5c0 -39.333 23.333 -72.666 70 -99.999c7.33301 -4.66699 36.666 -13.334 87.999 -26.001s101.5 -29.334 150.5 -50.001
s93.333 -50.834 133 -90.501s65.167 -90.834 76.5 -153.501c2 -14 3 -28.333 3 -43c0 -43.333 -9 -88.666 -27 -135.999s-44.333 -91.5 -79 -132.5s-77.667 -74.167 -129 -99.5s-108 -38 -170 -38c-42.667 0 -84.667 5.66699 -126 17
c-80.667 16 -146.834 58.167 -198.501 126.5s-81.5 154.166 -89.5 257.499h288c10 -37.333 28 -65.833 54 -85.5s54 -29.5 84 -29.5c33.333 0 61.333 10.333 84 31s34 48.667 34 84c0 28.667 -14.667 51.5 -44 68.5s-76.333 36 -141 57s-109.667 37.833 -135 50.5
c-65.333 32.667 -113.166 76.334 -143.499 131.001s-45.5 112.334 -45.5 173.001c0 33.333 4.33301 65.333 13 96z" />
    <glyph glyph-name="t" unicode="t" horiz-adv-x="608" 
d="M144 1136v368h272v-368h160v-240h-160v-896h-272v896h-144v240h144z" />
    <glyph glyph-name="u" unicode="u" horiz-adv-x="1216" 
d="M112 512l-0.00195312 623.997h272v-624c0 -89.333 23.5 -160.666 70.5 -213.999s101.5 -80 163.5 -80c38 0 73.167 10.833 105.5 32.5s58.5 54.834 78.5 99.501s30 98.667 30 162v624h288v-1136h-240v112c-49.333 -54 -102.5 -94.667 -159.5 -122s-114.5 -41 -172.5 -41
c-57.333 0 -112.166 12.833 -164.499 38.5s-99.166 63.334 -140.499 113.001s-73.5 109.5 -96.5 179.5s-34.5 147.333 -34.5 232z" />
    <glyph glyph-name="v" unicode="v" 
d="M-16 1136h304l272 -752l256 752h288l-432 -1136h-224z" />
    <glyph glyph-name="w" unicode="w" horiz-adv-x="1632" 
d="M0 1136h288l224 -688l192 688h208l192 -688l192 688h288l-384 -1136h-176l-224 704l-208 -704h-176z" />
    <glyph glyph-name="x" unicode="x" 
d="M352 1136l192 -320l208 320h304l-352 -560l416 -576h-352l-224 368l-224 -368h-336l400 576l-352 560h320z" />
    <glyph glyph-name="y" unicode="y" horiz-adv-x="1184" 
d="M416 80l-432 1056h320l272 -752l256 752h320l-656 -1536h-304z" />
    <glyph glyph-name="z" unicode="z" horiz-adv-x="928" 
d="M544 896h-448v240h768v-256l-496 -640h528v-240h-864v240z" />
    <glyph glyph-name="braceleft" unicode="{" horiz-adv-x="688" 
d="M640 1504c-66.667 -22 -115.332 -53.5 -145.999 -94.5s-46 -84.167 -46 -129.5v-464c0 -56 -12.667 -100.667 -38 -134s-66 -58 -122 -74c54 -8 94.167 -30.167 120.5 -66.5s39.5 -83.5 39.5 -141.5v-336c0 -68 1.33301 -118.667 4 -152s9 -62 19 -86
s26.833 -45 50.5 -63s57.834 -35 102.501 -51c-11.333 -0.666992 -27.666 -1 -48.999 -1c-76.667 0 -138 8.83301 -184 26.5s-79.667 42.5 -101 74.5s-35 68.667 -41 110s-9 94 -9 158v336c0 40.667 -3.83301 72.667 -11.5 96s-23.834 42.5 -48.501 57.5
s-63.334 27.833 -116.001 38.5c69.333 23.333 118.666 50.666 147.999 81.999s44 68 44 110v400c0 74 7.83301 132 23.5 174s39.167 72.333 70.5 91s67.5 29.834 108.5 33.501s101.5 5.5 181.5 5.5z" />
    <glyph glyph-name="bar" unicode="|" horiz-adv-x="1216" 
d="M496 0v1520h240v-1520h-240z" />
    <glyph glyph-name="braceright" unicode="}" horiz-adv-x="688" 
d="M240 1280c0 67.333 -13.835 117.498 -41.502 150.498s-72.5 62.833 -134.5 89.5c12.667 1.33301 31.334 2 56.001 2c92.667 0 170.5 -19 233.5 -57s94.5 -94.333 94.5 -169v-432c0 -70 14.333 -127.5 43 -172.5s73 -67.5 133 -67.5c-44.667 -13.333 -78.5 -27 -101.5 -41
s-41.167 -36.5 -54.5 -67.5s-20 -74.833 -20 -131.5v-416c0 -47.333 -12.167 -89 -36.5 -125s-57.666 -63.5 -99.999 -82.5s-89.833 -28.5 -142.5 -28.5c-34 0 -69 4 -105 12c38.667 5.33301 71 17.5 97 36.5s45.667 47.333 59 85s20 87.834 20 150.501v368
c0 55.333 6.16699 97.5 18.5 126.5s27 49.167 44 60.5s49.5 29 97.5 53c-51.333 28.667 -87.5 52.834 -108.5 72.501s-34.833 42.667 -41.5 69s-10 64.5 -10 114.5v400z" />
    <glyph glyph-name="asciitilde" unicode="~" horiz-adv-x="1216" 
d="M400 832c48 -2 93.332 -8.66602 135.999 -19.999s83.834 -25.833 123.501 -43.5l103 -45c29 -12.333 53.5 -18.5 73.5 -18.5c27.333 0 53.333 10.667 78 32s50.667 58.333 78 111l144 -176c-32.667 -54.667 -76.5 -108.334 -131.5 -161.001s-107.167 -79 -156.5 -79
c-43.333 4 -85.666 13.167 -126.999 27.5s-85 32.5 -131 54.5s-81.5 38 -106.5 48s-49.167 15 -72.5 15c-62.667 0 -119.667 -53.667 -171 -161l-128 160c0 21.333 15.667 52 47 92s69.166 76.167 113.499 108.5s86.833 50.833 127.5 55.5z" />
    <glyph glyph-name="exclamdown" unicode="&#xa1;" horiz-adv-x="576" 
d="M128 1120h272v-256h-272v256zM128 736h272v-1104h-272v1104z" />
    <glyph glyph-name="cent" unicode="&#xa2;" 
d="M704 1232c78.667 -19.333 143.167 -49.998 193.5 -91.998s86.666 -86.667 108.999 -134s33.5 -89.333 33.5 -126h-272c-10 28 -32 50 -66 66s-73 24 -117 24c-60.667 0 -113.5 -16.833 -158.5 -50.5s-69.833 -84.167 -74.5 -151.5c0 -74.667 23.167 -131.5 69.5 -170.5
s100.833 -58.5 163.5 -58.5c38.667 0 73.334 7.66699 104.001 23s51.667 36 63 62h288c-4.66699 -45.333 -23.834 -93.833 -57.501 -145.5s-75.667 -95.167 -126 -130.5s-101.166 -55.333 -152.499 -60v-224h-256v224c-74.667 10.667 -139.834 39.667 -195.501 87
s-98.167 106 -127.5 176s-44 142.333 -44 217c0 70.667 13.333 138.167 40 202.5s67.334 119.666 122.001 165.999s123 78.166 205 95.499v208h256v-208z" />
    <glyph glyph-name="sterling" unicode="&#xa3;" 
d="M832 880l0.00292969 -271.999h-208c38.667 -46.667 58 -108.667 58 -186c0 -53.333 -8.66699 -114 -26 -182c49.333 0 97.666 15.667 144.999 47s71 90 71 176c0 22 -2.66699 49 -8 81h272c3.33301 -28.667 5 -54.334 5 -77.001c0 -81.333 -14.833 -157.5 -44.5 -228.5
s-73.834 -128.5 -132.501 -172.5s-129.334 -66 -212.001 -66h-688v240h288c33.333 50 50 101 50 153c0 42 -11.667 82.667 -35 122s-60.333 75.666 -111 108.999h-256v256h112c-25.333 46.667 -38 99.334 -38 158.001c0 74.667 20.5 148.667 61.5 222s98.5 134 172.5 182
s158 74 252 78c73.333 0 140.333 -14 201 -42s111.834 -63.167 153.501 -105.5s73.667 -86.833 96 -133.5s33.5 -87 33.5 -121c0 -8 -1.33301 -18 -4 -30h-272c-10.667 54.667 -33.834 95.667 -69.501 123s-76.5 41 -122.5 41c-38 0 -75 -9 -111 -27s-65 -43 -87 -75
s-33 -68.667 -33 -110c0 -52 18.333 -105.333 55 -160h432z" />
    <glyph glyph-name="currency" unicode="&#xa4;" 
d="M176 1072l-96 80l176 176l96 -96c20 20 56 38.5 108 55.5s106 25.5 162 25.5c100 0 186 -27 258 -81l80 96l160 -160l-80 -80c61.333 -98.667 92 -188.667 92 -270c0 -86 -30.667 -172 -92 -258l96 -96l-176 -160l-80 96c-22.667 -26.667 -59.334 -48.5 -110.001 -65.5
s-104 -25.5 -160 -25.5c-49.333 0 -96.666 7.33301 -141.999 22s-84 37.667 -116 69l-96 -96l-160 176l96 80c-57.333 74 -86 158.667 -86 254c0 86 23.333 172 70 258zM608 1072c-82.667 -6.66699 -146.166 -34.666 -190.499 -83.999s-66.5 -107 -66.5 -173
c0 -68.667 24.167 -128.334 72.5 -179.001s115.166 -76 200.499 -76c76.667 4 136.5 30.5 179.5 79.5s64.5 106.833 64.5 173.5c0 44 -10.167 86 -30.5 126s-49.833 72.167 -88.5 96.5s-85.667 36.5 -141 36.5z" />
    <glyph glyph-name="yen" unicode="&#xa5;" 
d="M224 944l-288 544h304l336 -688l320 688h304l-288 -544h192v-176h-272l-128 -224h400v-176h-400v-368h-272v368h-384v176h384l-128 224h-272v176h192z" />
    <glyph glyph-name="brokenbar" unicode="&#xa6;" horiz-adv-x="768" 
d="M736 1488v-1488h-240v1488h240z" />
    <glyph glyph-name="section" unicode="&#xa7;" 
d="M224 1040c-19.333 24 -34.3389 50.9961 -45.0059 80.9961s-16 61.333 -16 94c0 55.333 15.333 109.333 46 162s75.834 95 135.501 127s131.5 48 215.5 48c64 0 122.833 -7.33301 176.5 -22s99.334 -37 137.001 -67s66.834 -68.5 87.501 -115.5s31 -101.5 31 -163.5h-240
c-13.333 40.667 -35.666 70.5 -66.999 89.5s-66.666 28.5 -105.999 28.5c-42.667 0 -80.5 -10 -113.5 -30s-49.5 -43.667 -49.5 -71c0 -35.333 26.667 -67.666 80 -96.999c28 -17.333 54 -31.166 78 -41.499l125 -52c59.333 -24.333 106.833 -45.833 142.5 -64.5
s69.834 -40.667 102.501 -66c20.667 -14 40.334 -34.5 59.001 -61.5s33.667 -58 45 -93s17 -70.5 17 -106.5c0 -115.333 -56.333 -209.666 -169 -282.999c36 -30.667 63.833 -68 83.5 -112s29.5 -90.667 29.5 -140c0 -62.667 -16.167 -122.667 -48.5 -180
s-80.166 -103.666 -143.499 -138.999s-138.333 -53 -225 -53h-26c-87.333 0 -160.5 15 -219.5 45s-106 67.833 -141 113.5s-59.667 90.5 -74 134.5s-21.5 82.333 -21.5 115c0 8 0.666992 16 2 24h256c5.33301 -57.333 27.166 -100.166 65.499 -128.499
s83.5 -42.5 135.5 -42.5c45.333 0 86.166 10.667 122.499 32s54.5 48.333 54.5 81c0 28.667 -16.5 59.167 -49.5 91.5s-83.833 63.833 -152.5 94.5c-143.333 61.333 -261 129.166 -353 203.499s-138 158.5 -138 252.5c0 32 6 64.5 18 97.5s30.5 67.5 55.5 103.5
s57.5 73 97.5 111zM383.994 879.996c-49.333 -43.333 -74 -83 -74 -119c0 -30 14.833 -57.333 44.5 -82s68.834 -48.5 117.501 -71.5l153 -73c53.333 -25.667 90.333 -49.167 111 -70.5c54.667 44.667 82 86 82 124c0 32 -16 60.667 -48 86s-75.333 51.333 -130 78
c-36.667 20.667 -69.334 38.167 -98.001 52.5l-95 45.5c-34.667 16 -55.667 26 -63 30z" />
    <glyph glyph-name="dieresis" unicode="&#xa8;" horiz-adv-x="1024" 
d="M160 1520h272v-272h-272v272zM576 1520h272v-272h-272v272z" />
    <glyph glyph-name="copyright" unicode="&#xa9;" horiz-adv-x="1504" 
d="M752 1520c126 -2 238.5 -25.166 337.5 -69.499s181.333 -104 247 -179s115 -158.833 148 -251.5s49.5 -189 49.5 -289c0 -95.333 -15.333 -187.833 -46 -277.5s-75.834 -170.667 -135.501 -243s-135.167 -131.5 -226.5 -177.5s-194.666 -73 -309.999 -81
c-26.667 -1.33301 -46.667 -2 -60 -2c-160.667 0 -301.167 38.833 -421.5 116.5s-211.833 179.5 -274.5 305.5s-94 257.667 -94 395c0 130 28.833 252.167 86.5 366.5s145.667 206.666 264 276.999s263.5 106.833 435.5 109.5zM752 1376
c-103.333 -2.66699 -194.666 -21.498 -273.999 -56.498s-144.666 -80.5 -195.999 -136.5s-90.333 -120.167 -117 -192.5s-40 -146.5 -40 -222.5c0 -110 25.667 -214.833 77 -314.5s127.166 -180.834 227.499 -243.501s218.5 -95.334 354.5 -98.001
c95.333 0 179.833 17.667 253.5 53s136 83.833 187 145.5s89.667 131.5 116 209.5s39.5 157 39.5 237c0 80.667 -12.667 158 -38 232s-64 140 -116 198s-117.833 104 -197.5 138s-171.834 51 -276.501 51zM768 1200c60.667 0 114.999 -9.66895 162.999 -29.002
s88.667 -45.166 122 -77.499s58.166 -66 74.499 -101s24.5 -67.167 24.5 -96.5h-176c-12.667 50 -36 87.833 -70 113.5s-73.333 38.5 -118 38.5c-42 0 -83.167 -11.667 -123.5 -35s-73.166 -57.5 -98.499 -102.5s-38 -97.833 -38 -158.5
c4.66699 -108 29.667 -187.5 75 -238.5s100 -76.5 164 -76.5c32.667 0 64.167 6.66699 94.5 20s55.833 32 76.5 56s33.334 50.333 38.001 79h176c-4.66699 -49.333 -25.5 -98 -62.5 -146s-83.5 -86.5 -139.5 -115.5s-113 -43.5 -171 -43.5c-12 0 -21 0.333008 -27 1
c-90.667 8 -167 33.667 -229 77s-108.167 97.833 -138.5 163.5s-45.5 135.834 -45.5 210.501c0 58.667 9.5 115.834 28.5 171.501s46.833 105.167 83.5 148.5s81.5 77.666 134.5 102.999s113.833 38 182.5 38z" />
    <glyph glyph-name="ordfeminine" unicode="&#xaa;" horiz-adv-x="736" 
d="M560 1456v79.999h128v-624h-128v64l-38.5 -27.5c-11.667 -8.33301 -25.334 -16.666 -41.001 -24.999s-32.667 -15 -51 -20s-38.833 -7.5 -61.5 -7.5c-67.333 0 -124.833 15.333 -172.5 46s-83.5 70.5 -107.5 119.5s-36 102.167 -36 159.5
c0 56.667 12.333 110.334 37 161.001s62 91.667 112 123s111 47 183 47c31.333 0 64.333 -9.83301 99 -29.5s60.334 -41.834 77.001 -66.501zM368 1408c-52.667 -4 -93.5 -22.666 -122.5 -55.999s-43.5 -73.333 -43.5 -120c0 -50.667 16.5 -95.334 49.5 -134.001
s77.167 -58 132.5 -58c53.333 0 95.333 19.167 126 57.5s46 82.5 46 132.5s-15.667 92.167 -47 126.5s-78.333 51.5 -141 51.5zM64 784h624v-128h-624v128z" />
    <glyph glyph-name="guillemotleft" unicode="&#xab;" horiz-adv-x="929" 
d="M785 769l-128 -96l128 -112v-256l-272 256v224l272 240v-256zM352 769l-128 -96l128 -112v-256l-272 256v224l272 240v-256z" />
    <glyph glyph-name="logicalnot" unicode="&#xac;" horiz-adv-x="1216" 
d="M112 976h1008v-608h-240v352h-768v256z" />
    <glyph glyph-name="registered" unicode="&#xae;" horiz-adv-x="1504" 
d="M768 1552c132.667 0 250.333 -21.1689 353 -63.502s188.167 -100.333 256.5 -174s119.833 -157.5 154.5 -251.5s52 -190.667 52 -290c0 -138 -31.167 -268.667 -93.5 -392s-156 -224.5 -281 -303.5s-272.167 -120.833 -441.5 -125.5h-29c-152 0 -286 39 -402 117
s-204.333 179.833 -265 305.5s-91 258.167 -91 397.5c0 98.667 16 193.334 48 284.001s80.5 172.334 145.5 245.001s147.5 131.5 247.5 176.5s215.333 69.833 346 74.5zM783.999 1408c-104.667 -4 -197.668 -25.332 -279.001 -63.999s-148.833 -89.167 -202.5 -151.5
s-94.5 -133 -122.5 -212s-42 -159.167 -42 -240.5c0 -78.667 13.167 -155.334 39.5 -230.001s65.5 -141.5 117.5 -200.5s116.5 -106.167 193.5 -141.5s164.833 -54 263.5 -56c102.667 0 194.5 18 275.5 54s148.667 86.167 203 150.5s94.833 135.5 121.5 213.5s40 159 40 243
s-12.833 163.667 -38.5 239s-63.5 142.5 -113.5 201.5s-114.167 106.167 -192.5 141.5s-166.166 53 -263.499 53zM431.998 319.999l-0.000976562 847.998h512c52 0 96.5 -11.167 133.5 -33.5s65 -51.666 84 -87.999s28.5 -75.166 28.5 -116.499
c0 -63.333 -21.167 -118.5 -63.5 -165.5s-103.166 -72.5 -182.499 -76.5l208 -368h-192l-192 368h-160v-368h-176zM607.997 1056l0.000976562 -240.001h240c51.333 0 92.166 12.833 122.499 38.5s45.5 54.834 45.5 87.501c0 32 -14.5 59 -43.5 81s-70.5 33 -124.5 33h-240z
" />
    <glyph glyph-name="plusminus" unicode="&#xb1;" horiz-adv-x="1217" 
 />
    <glyph glyph-name="twosuperior" unicode="&#xb2;" horiz-adv-x="688" 
 />
    <glyph glyph-name="threesuperior" unicode="&#xb3;" horiz-adv-x="688" 
 />
    <glyph glyph-name="acute" unicode="&#xb4;" horiz-adv-x="848" 
d="M144 1424l448 288l112 -224l-464 -256z" />
    <glyph glyph-name="mu" unicode="&#xb5;" horiz-adv-x="1167" 
 />
    <glyph glyph-name="paragraph" unicode="&#xb6;" horiz-adv-x="1216" 
d="M496 672c-92 12.667 -170.166 40.334 -234.499 83.001s-112.833 94.5 -145.5 155.5s-49 125.167 -49 192.5c0 71.333 19.333 139.166 58 203.499s96.667 116 174 155s169.666 58.5 276.999 58.5h496v-1776h-208v1568h-160v-1568h-208v928z" />
    <glyph glyph-name="periodcentered" unicode="&#xb7;" horiz-adv-x="576" 
d="M624 1008c104.667 -11.333 184.834 -51.167 240.501 -119.5s83.5 -146.833 83.5 -235.5c0 -59.333 -12.5 -115 -37.5 -167s-61.833 -94.667 -110.5 -128s-107.334 -51.333 -176.001 -54c-75.333 0 -139.833 16.833 -193.5 50.5s-93.834 78.167 -120.501 133.5
s-40 113 -40 173s12.833 116.5 38.5 169.5s65.334 95.833 119.001 128.5s119.167 49 196.5 49z" />
    <glyph glyph-name="cedilla" unicode="&#xb8;" horiz-adv-x="688" 
d="M208 0h111.995l-32 -112c13.333 4.66699 28.333 7 45 7c24.667 0 49.834 -5.33301 75.501 -16s48.334 -25.334 68.001 -44.001s35.834 -42.667 48.501 -72s19 -62.333 19 -99c0 -36 -10 -68.5 -30 -97.5s-46 -51.667 -78 -68s-66 -24.5 -102 -24.5
c-45.333 0 -85.666 14.333 -120.999 43s-58.333 72.334 -69 131.001h96c10.667 -18 25.834 -32.5 45.501 -43.5s39.5 -16.5 59.5 -16.5c24.667 0 45.334 9 62.001 27s25 45 25 81c0 26 -8.83301 47.833 -26.5 65.5s-38.834 26.5 -63.501 26.5c-34 0 -62.667 -20 -86 -60
l-112 32z" />
    <glyph glyph-name="onesuperior" unicode="&#xb9;" horiz-adv-x="688" 
 />
    <glyph glyph-name="ordmasculine" unicode="&#xba;" horiz-adv-x="736" 
d="M64 784h624v-128h-624v128zM384 1552c72.667 0 134.332 -14.168 184.999 -42.501s88.167 -65.666 112.5 -111.999s36.5 -96.166 36.5 -149.499c0 -40 -6.66699 -78.667 -20 -116s-32.666 -70.833 -57.999 -100.5s-57 -53.834 -95 -72.501s-81 -29 -129 -31
c-77.333 0 -142.5 14.167 -195.5 42.5s-92.333 66 -118 113s-38.5 97.167 -38.5 150.5c0 54 12.5 105.333 37.5 154s61.833 88.167 110.5 118.5s106 45.5 172 45.5zM383.998 1424c-56 -4 -99.667 -23.166 -131 -57.499s-47 -74.5 -47 -120.5
c0 -46.667 17.333 -87.334 52 -122.001s82 -52 142 -52c47.333 0 85.833 18.667 115.5 56s44.5 80.333 44.5 129c0 46.667 -14.5 86.167 -43.5 118.5s-73.167 48.5 -132.5 48.5z" />
    <glyph glyph-name="guillemotright" unicode="&#xbb;" horiz-adv-x="929" 
d="M576 768v256l272 -240v-224l-272 -256v256l128 96zM160 768v256l272 -240v-224l-272 -256v256l128 96z" />
    <glyph glyph-name="onequarter" unicode="&#xbc;" horiz-adv-x="1712" 
 />
    <glyph glyph-name="onehalf" unicode="&#xbd;" horiz-adv-x="1712" 
 />
    <glyph glyph-name="threequarters" unicode="&#xbe;" horiz-adv-x="1712" 
 />
    <glyph glyph-name="questiondown" unicode="&#xbf;" 
d="M464 1136h272v-272h-272v272zM464 752l271.999 -0.00292969c0 -15.333 0.333008 -29.666 1 -42.999v-50c0 -53.333 -2.83301 -98.666 -8.5 -135.999s-17.5 -72.833 -35.5 -106.5s-46.333 -65.834 -85 -96.501c-156 -110.667 -234 -213 -234 -307
c0 -47.333 19.5 -85.5 58.5 -114.5s84.833 -43.5 137.5 -43.5c56 0 105 17.833 147 53.5s64.333 87.5 67 155.5h272c0.666992 -6 1 -14.667 1 -26c0 -52.667 -10.833 -105.167 -32.5 -157.5s-52.334 -99.666 -92.001 -141.999s-86.167 -76 -139.5 -101
s-109.666 -37.5 -168.999 -37.5c-77.333 0 -154.5 20 -231.5 60s-140.667 94.333 -191 163s-75.5 143.334 -75.5 224.001c0 82.667 27.333 163 82 241c26.667 38 57.334 72 92.001 102l91 78.5c26 22.333 46.167 47.333 60.5 75s21.5 64.5 21.5 110.5c0 27.333 -3 60 -9 98z
" />
    <glyph glyph-name="Agrave" unicode="&#xc0;" horiz-adv-x="1504" 
d="M640 1504h208l640 -1504h-304l-160 384h-544l-160 -384h-304zM752 1088l-160 -432h320zM608 2096l448 -288l-112 -192l-464 272z" />
    <glyph glyph-name="Aacute" unicode="&#xc1;" horiz-adv-x="1504" 
d="M640 1504h208l640 -1504h-304l-160 384h-544l-160 -384h-304zM752 1088l-160 -432h320zM480 1809l448 288l112 -224l-464 -256z" />
    <glyph glyph-name="Acircumflex" unicode="&#xc2;" horiz-adv-x="1504" 
d="M640 1504h208l640 -1504h-304l-160 384h-544l-160 -384h-304zM752 1088l-160 -432h320zM624 1615h-304l304 272h224l272 -272h-288l-96 128z" />
    <glyph glyph-name="Atilde" unicode="&#xc3;" horiz-adv-x="1504" 
d="M640 1504h208l640 -1504h-304l-160 384h-544l-160 -384h-304zM752 1088l-160 -432h320zM960 1871l96 -175.999c-60.667 -60.667 -131.667 -91 -213 -91c-43.333 0 -89.666 9 -138.999 27c-23.333 9.33301 -48 14 -74 14c-20.667 0 -40.834 -2.33301 -60.501 -7
s-49.5 -12.334 -89.5 -23.001l-96 176c12.667 19.333 37.167 37.833 73.5 55.5s77.166 26.5 122.499 26.5c48.667 0 95.334 -11.333 140.001 -34c31.333 -16 61.666 -24 90.999 -24c36.667 0 86.334 18.667 149.001 56z" />
    <glyph glyph-name="Adieresis" unicode="&#xc4;" horiz-adv-x="1504" 
d="M640 1504h208l640 -1504h-304l-160 384h-544l-160 -384h-304zM752 1088l-160 -432h320zM383 1889h272v-272h-272v272zM799 1889h272v-272h-272v272z" />
    <glyph glyph-name="Aring" unicode="&#xc5;" horiz-adv-x="1504" 
d="M640 1504h208l640 -1504h-304l-160 384h-544l-160 -384h-304zM752 1088l-160 -432h320zM704 2032c67.333 0 118.833 -19.667 154.5 -59s53.5 -87 53.5 -143c0 -57.333 -19.5 -107.333 -58.5 -150s-94.167 -64 -165.5 -64c-60.667 0 -108.5 20.667 -143.5 62
s-52.5 90 -52.5 146c0 56.667 18.333 105.5 55 146.5s89 61.5 157 61.5zM704 1904c-26.667 0 -47.332 -6.83105 -61.999 -20.498s-22 -30.834 -22 -51.501c0 -22.667 8.16699 -43 24.5 -61s36.166 -27 59.499 -27c24 0 43 8.66699 57 26s21 37 21 59
c0 21.333 -6.5 39.166 -19.5 53.499s-32.5 21.5 -58.5 21.5z" />
    <glyph glyph-name="AE" unicode="&#xc6;" horiz-adv-x="1824" 
d="M1008 1472h704v-272h-448v-336h416v-272h-416v-336h448v-256h-736v368h-400l-224 -368h-320zM976 1008l-224 -368h224v368z" />
    <glyph glyph-name="Ccedilla" unicode="&#xc7;" horiz-adv-x="1584" 
d="M656 -16c-85.333 20.667 -165.171 53.5 -239.504 98.5s-138.666 100.5 -192.999 166.5s-97.166 144.333 -128.499 235s-47 190.667 -47 300c4 63.333 23.5 137.166 58.5 221.499s84.667 165.833 149 244.5s143.333 143.334 237 194.001s199.167 76 316.5 76h23
c88.667 0 181.5 -19 278.5 -57s184.5 -92.5 262.5 -163.5s132.333 -152.167 163 -243.5h-320c-58.667 64 -120.5 111.333 -185.5 142s-131.5 46 -199.5 46c-85.333 0 -166.5 -23.5 -243.5 -70.5s-138.167 -108.5 -183.5 -184.5s-68 -155 -68 -237
c0 -93.333 27 -179.5 81 -258.5s123.167 -141.167 207.5 -186.5s169.166 -68 254.499 -68c63.333 0 121.166 13 173.499 39s96.166 66.667 131.499 122h336c-36.667 -100 -97.334 -182.833 -182.001 -248.5s-176.5 -113 -275.5 -142s-188.167 -43.5 -267.5 -43.5
c-11.333 0 -25.666 0.666992 -42.999 2l-16 -64c13.333 4.66699 28.333 7 45 7c24.667 0 49.834 -5.33301 75.501 -16s48.334 -25.334 68.001 -44.001s35.834 -42.667 48.501 -72s19 -62.333 19 -99c0 -36 -10 -68.5 -30 -97.5s-46 -51.667 -78 -68s-66 -24.5 -102 -24.5
c-45.333 0 -85.666 14.333 -120.999 43s-58.333 72.334 -69 131.001h96c10.667 -18 25.834 -32.5 45.501 -43.5s39.5 -16.5 59.5 -16.5c24.667 0 45.334 9 62.001 27s25 45 25 81c0 26 -8.83301 47.833 -26.5 65.5s-38.834 26.5 -63.501 26.5c-34 0 -62.667 -20 -86 -60
l-112 32z" />
    <glyph glyph-name="Egrave" unicode="&#xc8;" horiz-adv-x="1056" 
d="M128 1504h800v-272h-528v-368h512v-256h-512v-352h528v-256h-800v1504zM385 2096l448 -288l-112 -192l-464 272z" />
    <glyph glyph-name="Eacute" unicode="&#xc9;" horiz-adv-x="1056" 
d="M128 1504h800v-272h-528v-368h512v-256h-512v-352h528v-256h-800v1504zM240 1809l448 288l112 -224l-464 -256z" />
    <glyph glyph-name="Ecircumflex" unicode="&#xca;" horiz-adv-x="1057" 
d="M128 1504h800v-272h-528v-368h512v-256h-512v-352h528v-256h-800v1504zM415 1632h-304l304 272h224l272 -272h-288l-96 128z" />
    <glyph glyph-name="Edieresis" unicode="&#xcb;" horiz-adv-x="1057" 
d="M128 1504h800v-272h-528v-368h512v-256h-512v-352h528v-256h-800v1504zM193 1969h272v-272h-272v272zM609 1969h272v-272h-272v272z" />
    <glyph glyph-name="Igrave" unicode="&#xcc;" horiz-adv-x="575" 
d="M128 1504h288v-1504h-288v1504zM159 2193l448 -288l-112 -192l-464 272z" />
    <glyph glyph-name="Iacute" unicode="&#xcd;" horiz-adv-x="576" 
d="M128 1504h288v-1504h-288v1504zM97 1936l448 288l112 -224l-464 -256z" />
    <glyph glyph-name="Icircumflex" unicode="&#xce;" horiz-adv-x="576" 
d="M128 1504h288v-1504h-288v1504zM192 1728h-304l304 272h224l272 -272h-288l-96 128z" />
    <glyph glyph-name="Idieresis" unicode="&#xcf;" horiz-adv-x="575" 
d="M128 1504h288v-1504h-288v1504zM-49 2032h272v-272h-272v272zM367 2032h272v-272h-272v272z" />
    <glyph glyph-name="Eth" unicode="&#xd0;" horiz-adv-x="1503" 
 />
    <glyph glyph-name="Ntilde" unicode="&#xd1;" horiz-adv-x="1504" 
d="M128 1504h304l640 -1104v1104h272v-1504h-304l-624 1088v-1088h-288v1504zM976 1888l96 -175.999c-60.667 -60.667 -131.667 -91 -213 -91c-43.333 0 -89.666 9 -138.999 27c-23.333 9.33301 -48 14 -74 14c-20.667 0 -40.834 -2.33301 -60.501 -7
s-49.5 -12.334 -89.5 -23.001l-96 176c12.667 19.333 37.167 37.833 73.5 55.5s77.166 26.5 122.499 26.5c48.667 0 95.334 -11.333 140.001 -34c31.333 -16 61.666 -24 90.999 -24c36.667 0 86.334 18.667 149.001 56z" />
    <glyph glyph-name="Ograve" unicode="&#xd2;" horiz-adv-x="1712" 
d="M64 720c4 144 31.666 268.166 82.999 372.499s116.333 187.5 195 249.5s163.834 107.167 255.501 135.5s180.5 42.5 266.5 42.5c116.667 0 224.167 -23.333 322.5 -70s182.5 -108.167 252.5 -184.5s123.167 -158 159.5 -245s54.5 -170.5 54.5 -250.5
c0 -20.667 -1.66699 -42.667 -5 -66c-9.33301 -82 -29.5 -164.833 -60.5 -248.5s-77.5 -162.5 -139.5 -236.5s-144.167 -134.333 -246.5 -181s-225.5 -70 -369.5 -70c-132 0 -247.5 26.333 -346.5 79s-178.833 118.334 -239.5 197.001s-106.167 161.167 -136.5 247.5
s-45.5 162.5 -45.5 228.5zM351.999 719.999c4.66699 -108.667 32.1689 -199.165 82.502 -271.498s111.5 -125.166 183.5 -158.499s143.333 -50 214 -50c66 0 130 14.167 192 42.5s117.333 67.5 166 117.5s86.5 105.333 113.5 166s40.5 122.667 40.5 186
c0 81.333 -19.167 159.166 -57.5 233.499s-94 135.5 -167 183.5s-158.167 74.333 -255.5 79c-61.333 0 -120.833 -8.66699 -178.5 -26s-110.834 -45.833 -159.501 -85.5s-88.834 -94.334 -120.501 -164.001s-49.5 -153.834 -53.5 -252.501zM688.001 2096l448 -288l-112 -192
l-464 272z" />
    <glyph glyph-name="Oacute" unicode="&#xd3;" horiz-adv-x="1712" 
d="M64 720c4 144 31.666 268.166 82.999 372.499s116.333 187.5 195 249.5s163.834 107.167 255.501 135.5s180.5 42.5 266.5 42.5c116.667 0 224.167 -23.333 322.5 -70s182.5 -108.167 252.5 -184.5s123.167 -158 159.5 -245s54.5 -170.5 54.5 -250.5
c0 -20.667 -1.66699 -42.667 -5 -66c-9.33301 -82 -29.5 -164.833 -60.5 -248.5s-77.5 -162.5 -139.5 -236.5s-144.167 -134.333 -246.5 -181s-225.5 -70 -369.5 -70c-132 0 -247.5 26.333 -346.5 79s-178.833 118.334 -239.5 197.001s-106.167 161.167 -136.5 247.5
s-45.5 162.5 -45.5 228.5zM351.999 719.999c4.66699 -108.667 32.1689 -199.165 82.502 -271.498s111.5 -125.166 183.5 -158.499s143.333 -50 214 -50c66 0 130 14.167 192 42.5s117.333 67.5 166 117.5s86.5 105.333 113.5 166s40.5 122.667 40.5 186
c0 81.333 -19.167 159.166 -57.5 233.499s-94 135.5 -167 183.5s-158.167 74.333 -255.5 79c-61.333 0 -120.833 -8.66699 -178.5 -26s-110.834 -45.833 -159.501 -85.5s-88.834 -94.334 -120.501 -164.001s-49.5 -153.834 -53.5 -252.501zM576.001 1823l448 288l112 -224
l-464 -256z" />
    <glyph glyph-name="Ocircumflex" unicode="&#xd4;" horiz-adv-x="1712" 
d="M64 720c4 144 31.666 268.166 82.999 372.499s116.333 187.5 195 249.5s163.834 107.167 255.501 135.5s180.5 42.5 266.5 42.5c116.667 0 224.167 -23.333 322.5 -70s182.5 -108.167 252.5 -184.5s123.167 -158 159.5 -245s54.5 -170.5 54.5 -250.5
c0 -20.667 -1.66699 -42.667 -5 -66c-9.33301 -82 -29.5 -164.833 -60.5 -248.5s-77.5 -162.5 -139.5 -236.5s-144.167 -134.333 -246.5 -181s-225.5 -70 -369.5 -70c-132 0 -247.5 26.333 -346.5 79s-178.833 118.334 -239.5 197.001s-106.167 161.167 -136.5 247.5
s-45.5 162.5 -45.5 228.5zM351.999 719.999c4.66699 -108.667 32.1689 -199.165 82.502 -271.498s111.5 -125.166 183.5 -158.499s143.333 -50 214 -50c66 0 130 14.167 192 42.5s117.333 67.5 166 117.5s86.5 105.333 113.5 166s40.5 122.667 40.5 186
c0 81.333 -19.167 159.166 -57.5 233.499s-94 135.5 -167 183.5s-158.167 74.333 -255.5 79c-61.333 0 -120.833 -8.66699 -178.5 -26s-110.834 -45.833 -159.501 -85.5s-88.834 -94.334 -120.501 -164.001s-49.5 -153.834 -53.5 -252.501zM737.001 1681h-304l304 272h224
l272 -272h-288l-96 128z" />
    <glyph glyph-name="Otilde" unicode="&#xd5;" horiz-adv-x="1712" 
d="M64 720c4 144 31.666 268.166 82.999 372.499s116.333 187.5 195 249.5s163.834 107.167 255.501 135.5s180.5 42.5 266.5 42.5c116.667 0 224.167 -23.333 322.5 -70s182.5 -108.167 252.5 -184.5s123.167 -158 159.5 -245s54.5 -170.5 54.5 -250.5
c0 -20.667 -1.66699 -42.667 -5 -66c-9.33301 -82 -29.5 -164.833 -60.5 -248.5s-77.5 -162.5 -139.5 -236.5s-144.167 -134.333 -246.5 -181s-225.5 -70 -369.5 -70c-132 0 -247.5 26.333 -346.5 79s-178.833 118.334 -239.5 197.001s-106.167 161.167 -136.5 247.5
s-45.5 162.5 -45.5 228.5zM351.999 719.999c4.66699 -108.667 32.1689 -199.165 82.502 -271.498s111.5 -125.166 183.5 -158.499s143.333 -50 214 -50c66 0 130 14.167 192 42.5s117.333 67.5 166 117.5s86.5 105.333 113.5 166s40.5 122.667 40.5 186
c0 81.333 -19.167 159.166 -57.5 233.499s-94 135.5 -167 183.5s-158.167 74.333 -255.5 79c-61.333 0 -120.833 -8.66699 -178.5 -26s-110.834 -45.833 -159.501 -85.5s-88.834 -94.334 -120.501 -164.001s-49.5 -153.834 -53.5 -252.501zM488.001 1823l448 288l112 -224
l-464 -256zM1048 1823l448 288l112 -224l-464 -256z" />
    <glyph glyph-name="Odieresis" unicode="&#xd6;" horiz-adv-x="1712" 
d="M64 720c4 144 31.666 268.166 82.999 372.499s116.333 187.5 195 249.5s163.834 107.167 255.501 135.5s180.5 42.5 266.5 42.5c116.667 0 224.167 -23.333 322.5 -70s182.5 -108.167 252.5 -184.5s123.167 -158 159.5 -245s54.5 -170.5 54.5 -250.5
c0 -20.667 -1.66699 -42.667 -5 -66c-9.33301 -82 -29.5 -164.833 -60.5 -248.5s-77.5 -162.5 -139.5 -236.5s-144.167 -134.333 -246.5 -181s-225.5 -70 -369.5 -70c-132 0 -247.5 26.333 -346.5 79s-178.833 118.334 -239.5 197.001s-106.167 161.167 -136.5 247.5
s-45.5 162.5 -45.5 228.5zM351.999 719.999c4.66699 -108.667 32.1689 -199.165 82.502 -271.498s111.5 -125.166 183.5 -158.499s143.333 -50 214 -50c66 0 130 14.167 192 42.5s117.333 67.5 166 117.5s86.5 105.333 113.5 166s40.5 122.667 40.5 186
c0 81.333 -19.167 159.166 -57.5 233.499s-94 135.5 -167 183.5s-158.167 74.333 -255.5 79c-61.333 0 -120.833 -8.66699 -178.5 -26s-110.834 -45.833 -159.501 -85.5s-88.834 -94.334 -120.501 -164.001s-49.5 -153.834 -53.5 -252.501zM496.001 1936h272v-272h-272v272z
M912.001 1936h272v-272h-272v272z" />
    <glyph glyph-name="Oslash" unicode="&#xd8;" horiz-adv-x="1712" 
d="M448 416l560.003 800.002c-64 21.333 -112 32 -144 32c-61.333 0 -120.833 -8.66699 -178.5 -26s-110.834 -45.833 -159.501 -85.5s-88.834 -94.334 -120.501 -164.001s-49.5 -153.834 -53.5 -252.501c0 -58 8.66699 -110.833 26 -158.5s40.666 -96.167 69.999 -145.5z
M512.003 32.002l-112.001 -175.999l-224 160l112 176c-74 74 -129.833 160.167 -167.5 258.5s-56.5 188.166 -56.5 269.499c4 144 31.667 268.167 83 372.5s116.333 187.5 195 249.5s163.834 107.167 255.501 135.5s180.5 42.5 266.5 42.5c50 0 97.167 -5.33301 141.5 -16
s98.5 -26.667 162.5 -48l128 192l224 -144l-128 -192c84 -76.667 148 -166.167 192 -268.5s66 -200.5 66 -294.5c0 -10 -0.666992 -25 -2 -45c-9.33301 -82 -29.5 -164.833 -60.5 -248.5s-77.5 -162.5 -139.5 -236.5s-144.167 -134.333 -246.5 -181s-225.5 -70 -369.5 -70
c-56.667 0 -108.167 5.33301 -154.5 16s-101.5 26.667 -165.5 48zM1232 1072l-416 -608l-144 -192c28.667 -14 54.5 -22.833 77.5 -26.5s50.5 -5.5 82.5 -5.5c66 0 130 14.167 192 42.5s117.333 67.5 166 117.5s86.5 105.333 113.5 166s40.5 122.667 40.5 186
c0 101.333 -37.333 208 -112 320z" />
    <glyph glyph-name="Ugrave" unicode="&#xd9;" horiz-adv-x="1296" 
d="M144 448l-0.000976562 1056h272v-1024c0 -76 22.833 -136 68.5 -180s98.834 -66 159.501 -66c37.333 0 73 9.33301 107 28s61.333 46.5 82 83.5s31 81.833 31 134.5v1024h288v-1056c0.666992 -6 1 -14.667 1 -26c0 -76.667 -21.167 -148.5 -63.5 -215.5
s-101.5 -120.833 -177.5 -161.5s-161.333 -61 -256 -61c-156 0 -280.333 40.167 -373 120.5s-139 194.833 -139 343.5zM527.999 2113l448 -288l-112 -192l-464 272z" />
    <glyph glyph-name="Uacute" unicode="&#xda;" horiz-adv-x="1296" 
d="M144 448l-0.000976562 1056h272v-1024c0 -76 22.833 -136 68.5 -180s98.834 -66 159.501 -66c37.333 0 73 9.33301 107 28s61.333 46.5 82 83.5s31 81.833 31 134.5v1024h288v-1056c0.666992 -6 1 -14.667 1 -26c0 -76.667 -21.167 -148.5 -63.5 -215.5
s-101.5 -120.833 -177.5 -161.5s-161.333 -61 -256 -61c-156 0 -280.333 40.167 -373 120.5s-139 194.833 -139 343.5zM366.999 1856l448 288l112 -224l-464 -256z" />
    <glyph glyph-name="Ucircumflex" unicode="&#xdb;" horiz-adv-x="1296" 
d="M144 448l-0.000976562 1056h272v-1024c0 -76 22.833 -136 68.5 -180s98.834 -66 159.501 -66c37.333 0 73 9.33301 107 28s61.333 46.5 82 83.5s31 81.833 31 134.5v1024h288v-1056c0.666992 -6 1 -14.667 1 -26c0 -76.667 -21.167 -148.5 -63.5 -215.5
s-101.5 -120.833 -177.5 -161.5s-161.333 -61 -256 -61c-156 0 -280.333 40.167 -373 120.5s-139 194.833 -139 343.5zM182.999 1856l448 288l112 -224l-464 -256zM734.999 1856l448 288l112 -224l-464 -256z" />
    <glyph glyph-name="Udieresis" unicode="&#xdc;" horiz-adv-x="1296" 
d="M144 432l-0.000976562 1056h272v-1024c0 -76 22.833 -136 68.5 -180s98.834 -66 159.501 -66c37.333 0 73 9.33301 107 28s61.333 46.5 82 83.5s31 81.833 31 134.5v1024h288v-1056c0.666992 -6 1 -14.667 1 -26c0 -76.667 -21.167 -148.5 -63.5 -215.5
s-101.5 -120.833 -177.5 -161.5s-161.333 -61 -256 -61c-156 0 -280.333 40.167 -373 120.5s-139 194.833 -139 343.5zM302.999 1936h272v-272h-272v272zM718.999 1936h272v-272h-272v272z" />
    <glyph glyph-name="Yacute" unicode="&#xdd;" horiz-adv-x="1264" 
 />
    <glyph glyph-name="Thorn" unicode="&#xde;" horiz-adv-x="1137" 
 />
    <glyph glyph-name="germandbls" unicode="&#xdf;" horiz-adv-x="1216" 
d="M112 960c-0.666992 12 -0.999023 30.333 -0.999023 55c0 101.333 15.5 191.833 46.5 271.5s82.5 143.834 154.5 192.501s165.333 73 280 73c55.333 0 108.5 -12 159.5 -36s96.833 -56.833 137.5 -98.5s72.5 -88.834 95.5 -141.501s34.5 -106.334 34.5 -161.001
c0 -110 -46.333 -204.333 -139 -283c109.333 -33.333 190.5 -85 243.5 -155s79.5 -148.333 79.5 -235c0 -79.333 -20.667 -157.166 -62 -233.499s-98 -138.166 -170 -185.499s-150.333 -71 -235 -71c-62.667 0 -116.334 6.66699 -161.001 20s-85 36.166 -121 68.499
s-70 77.5 -102 135.5v-176h-240v960zM368.001 384l175.997 0.00292969c18.667 -52.667 45.667 -92.5 81 -119.5s73 -40.5 113 -40.5c32 0 63 8.16699 93 24.5s54 39.166 72 68.499s27 62.666 27 99.999c0 13.333 -0.666992 23.666 -2 30.999
c-7.33301 56 -25.333 97.833 -54 125.5s-61.667 45.167 -99 52.5s-82.333 11 -135 11c-53.333 0 -90.666 1 -111.999 3v256c12 -1.33301 21 -2 27 -2c52.667 0 96.334 18 131.001 54s52 83 52 141c0 6 -0.666992 16.333 -2 31c-2.66699 48.667 -21.167 87.334 -55.5 116.001
s-74.166 43 -119.499 43c-32.667 0 -64 -8.16699 -94 -24.5s-54.167 -41 -72.5 -74s-27.5 -73.167 -27.5 -120.5c0 -3.33301 0.166992 -6.33301 0.5 -9s0.5 -6.33398 0.5 -11.001v-656z" />
    <glyph glyph-name="agrave" unicode="&#xe0;" horiz-adv-x="1344" 
d="M64 576c6.66699 101.333 26.502 190.001 59.502 266.001s74.5 137.5 124.5 184.5s105.167 81.667 165.5 104s122.833 33.5 187.5 33.5c85.333 0 165.666 -18.333 240.999 -55s130.666 -86.334 165.999 -149.001v176h256v-1152h-256v144
c-38.667 -54.667 -93.667 -97.667 -165 -129s-144.333 -47 -219 -47c-82.667 0 -158.5 15.833 -227.5 47.5s-128.167 75.5 -177.5 131.5s-87.5 122.333 -114.5 199s-40.5 158.667 -40.5 246zM672.002 224.001c122 7.33301 208.498 39.501 259.498 96.501
s76.5 136.833 76.5 239.5c0 66 -15.5 124.833 -46.5 176.5s-72.167 91.167 -123.5 118.5s-106.666 41 -165.999 41s-114.666 -13.667 -165.999 -41s-92.5 -66.833 -123.5 -118.5s-46.5 -110.5 -46.5 -176.5c0 -70.667 16.167 -131.334 48.5 -182.001s74.333 -89 126 -115
s105.5 -39 161.5 -39zM512 1728l448 -288l-112 -192l-464 272z" />
    <glyph glyph-name="aacute" unicode="&#xe1;" horiz-adv-x="1344" 
d="M64 576c6.66699 101.333 26.502 190.001 59.502 266.001s74.5 137.5 124.5 184.5s105.167 81.667 165.5 104s122.833 33.5 187.5 33.5c85.333 0 165.666 -18.333 240.999 -55s130.666 -86.334 165.999 -149.001v176h256v-1152h-256v144
c-38.667 -54.667 -93.667 -97.667 -165 -129s-144.333 -47 -219 -47c-82.667 0 -158.5 15.833 -227.5 47.5s-128.167 75.5 -177.5 131.5s-87.5 122.333 -114.5 199s-40.5 158.667 -40.5 246zM672.002 224.001c122 7.33301 208.498 39.501 259.498 96.501
s76.5 136.833 76.5 239.5c0 66 -15.5 124.833 -46.5 176.5s-72.167 91.167 -123.5 118.5s-106.666 41 -165.999 41s-114.666 -13.667 -165.999 -41s-92.5 -66.833 -123.5 -118.5s-46.5 -110.5 -46.5 -176.5c0 -70.667 16.167 -131.334 48.5 -182.001s74.333 -89 126 -115
s105.5 -39 161.5 -39zM400 1424l448 288l112 -224l-464 -256z" />
    <glyph glyph-name="acircumflex" unicode="&#xe2;" horiz-adv-x="1344" 
d="M64 576c6.66699 101.333 26.502 190.001 59.502 266.001s74.5 137.5 124.5 184.5s105.167 81.667 165.5 104s122.833 33.5 187.5 33.5c85.333 0 165.666 -18.333 240.999 -55s130.666 -86.334 165.999 -149.001v176h256v-1152h-256v144
c-38.667 -54.667 -93.667 -97.667 -165 -129s-144.333 -47 -219 -47c-82.667 0 -158.5 15.833 -227.5 47.5s-128.167 75.5 -177.5 131.5s-87.5 122.333 -114.5 199s-40.5 158.667 -40.5 246zM672.002 224.001c122 7.33301 208.498 39.501 259.498 96.501
s76.5 136.833 76.5 239.5c0 66 -15.5 124.833 -46.5 176.5s-72.167 91.167 -123.5 118.5s-106.666 41 -165.999 41s-114.666 -13.667 -165.999 -41s-92.5 -66.833 -123.5 -118.5s-46.5 -110.5 -46.5 -176.5c0 -70.667 16.167 -131.334 48.5 -182.001s74.333 -89 126 -115
s105.5 -39 161.5 -39zM577 1263h-304l304 272h224l272 -272h-288l-96 128z" />
    <glyph glyph-name="atilde" unicode="&#xe3;" horiz-adv-x="1344" 
d="M64 576c6.66699 101.333 26.502 190.001 59.502 266.001s74.5 137.5 124.5 184.5s105.167 81.667 165.5 104s122.833 33.5 187.5 33.5c85.333 0 165.666 -18.333 240.999 -55s130.666 -86.334 165.999 -149.001v176h256v-1152h-256v144
c-38.667 -54.667 -93.667 -97.667 -165 -129s-144.333 -47 -219 -47c-82.667 0 -158.5 15.833 -227.5 47.5s-128.167 75.5 -177.5 131.5s-87.5 122.333 -114.5 199s-40.5 158.667 -40.5 246zM672.002 224.001c122 7.33301 208.498 39.501 259.498 96.501
s76.5 136.833 76.5 239.5c0 66 -15.5 124.833 -46.5 176.5s-72.167 91.167 -123.5 118.5s-106.666 41 -165.999 41s-114.666 -13.667 -165.999 -41s-92.5 -66.833 -123.5 -118.5s-46.5 -110.5 -46.5 -176.5c0 -70.667 16.167 -131.334 48.5 -182.001s74.333 -89 126 -115
s105.5 -39 161.5 -39zM913 1552l96 -175.999c-60.667 -60.667 -131.667 -91 -213 -91c-43.333 0 -89.666 9 -138.999 27c-23.333 9.33301 -48 14 -74 14c-20.667 0 -40.834 -2.33301 -60.501 -7s-49.5 -12.334 -89.5 -23.001l-96 176c12.667 19.333 37.167 37.833 73.5 55.5
s77.166 26.5 122.499 26.5c48.667 0 95.334 -11.333 140.001 -34c31.333 -16 61.666 -24 90.999 -24c36.667 0 86.334 18.667 149.001 56z" />
    <glyph glyph-name="adieresis" unicode="&#xe4;" horiz-adv-x="1344" 
d="M64 576c6.66699 101.333 26.502 190.001 59.502 266.001s74.5 137.5 124.5 184.5s105.167 81.667 165.5 104s122.833 33.5 187.5 33.5c85.333 0 165.666 -18.333 240.999 -55s130.666 -86.334 165.999 -149.001v176h256v-1152h-256v144
c-38.667 -54.667 -93.667 -97.667 -165 -129s-144.333 -47 -219 -47c-82.667 0 -158.5 15.833 -227.5 47.5s-128.167 75.5 -177.5 131.5s-87.5 122.333 -114.5 199s-40.5 158.667 -40.5 246zM672.002 224.001c122 7.33301 208.498 39.501 259.498 96.501
s76.5 136.833 76.5 239.5c0 66 -15.5 124.833 -46.5 176.5s-72.167 91.167 -123.5 118.5s-106.666 41 -165.999 41s-114.666 -13.667 -165.999 -41s-92.5 -66.833 -123.5 -118.5s-46.5 -110.5 -46.5 -176.5c0 -70.667 16.167 -131.334 48.5 -182.001s74.333 -89 126 -115
s105.5 -39 161.5 -39zM320 1536h272v-272h-272v272zM736 1536h272v-272h-272v272z" />
    <glyph glyph-name="aring" unicode="&#xe5;" horiz-adv-x="1344" 
d="M64 576c6.66699 101.333 26.502 190.001 59.502 266.001s74.5 137.5 124.5 184.5s105.167 81.667 165.5 104s122.833 33.5 187.5 33.5c85.333 0 165.666 -18.333 240.999 -55s130.666 -86.334 165.999 -149.001v176h256v-1152h-256v144
c-38.667 -54.667 -93.667 -97.667 -165 -129s-144.333 -47 -219 -47c-82.667 0 -158.5 15.833 -227.5 47.5s-128.167 75.5 -177.5 131.5s-87.5 122.333 -114.5 199s-40.5 158.667 -40.5 246zM672.002 224.001c122 7.33301 208.498 39.501 259.498 96.501
s76.5 136.833 76.5 239.5c0 66 -15.5 124.833 -46.5 176.5s-72.167 91.167 -123.5 118.5s-106.666 41 -165.999 41s-114.666 -13.667 -165.999 -41s-92.5 -66.833 -123.5 -118.5s-46.5 -110.5 -46.5 -176.5c0 -70.667 16.167 -131.334 48.5 -182.001s74.333 -89 126 -115
s105.5 -39 161.5 -39zM671 1680c67.333 0 118.833 -19.667 154.5 -59s53.5 -87 53.5 -143c0 -57.333 -19.5 -107.333 -58.5 -150s-94.167 -64 -165.5 -64c-60.667 0 -108.5 20.667 -143.5 62s-52.5 90 -52.5 146c0 56.667 18.333 105.5 55 146.5s89 61.5 157 61.5zM671 1552
c-26.667 0 -47.332 -6.83105 -61.999 -20.498s-22 -30.834 -22 -51.501c0 -22.667 8.16699 -43 24.5 -61s36.166 -27 59.499 -27c24 0 43 8.66699 57 26s21 37 21 59c0 21.333 -6.5 39.166 -19.5 53.499s-32.5 21.5 -58.5 21.5z" />
    <glyph glyph-name="ae" unicode="&#xe6;" horiz-adv-x="2192" 
d="M976 1072l0.000976562 127.999h240v-128c108 82 222 123 342 123c74.667 0 146.667 -16.167 216 -48.5s130.333 -77.166 183 -134.499s93.667 -123 123 -197s44 -151.333 44 -232c0 -39.333 -4 -79 -12 -119h-880c24 -40.667 54.5 -76.5 91.5 -107.5s77.667 -55 122 -72
s88.833 -25.5 133.5 -25.5c40.667 0 79.167 7.5 115.5 22.5s68.833 38.5 97.5 70.5h304c-70 -122.667 -153.5 -213 -250.5 -271s-195.833 -87 -296.5 -87c-68 0 -130.833 11.833 -188.5 35.5s-105.834 56.5 -144.501 98.5v-128h-240v128
c-64 -42.667 -120.833 -74.667 -170.5 -96s-110.167 -32 -181.5 -32c-120.667 4.66699 -223.5 35 -308.5 91s-148.5 128.333 -190.5 217s-63 182.334 -63 281.001c0 76 12.667 150.667 38 224s62.5 139.166 111.5 197.499s109.667 104.5 182 138.5s154.5 51 246.5 51
c53.333 0 107 -7.5 161 -22.5s112.333 -50.167 175 -105.5zM1824 719.999c-30 68 -70.001 118.333 -120.001 151s-104.333 49 -163 49c-67.333 0 -130.166 -18.833 -188.499 -56.5s-98.5 -85.5 -120.5 -143.5h592zM656 927.999c-106 0 -186.833 -31 -242.5 -93
s-83.5 -137.667 -83.5 -227c0 -56.667 12 -110.834 36 -162.501s59.667 -93.5 107 -125.5s103 -48 167 -48c54 2 101.333 12.5 142 31.5s74 43 100 72s45.5 62 58.5 99s19.5 75.833 19.5 116.5s-6.83301 81.334 -20.5 122.001s-33.334 76.5 -59.001 107.5
s-57.667 56.167 -96 75.5s-81.166 30 -128.499 32z" />
    <glyph glyph-name="ccedilla" unicode="&#xe7;" horiz-adv-x="1296" 
d="M64 720c34 96 81.3311 177.168 141.998 243.501s129.5 116 206.5 149s155.833 49.5 236.5 49.5c58 0 115.5 -8.66699 172.5 -26s110.167 -43.333 159.5 -78s93.166 -78 131.499 -130s67.5 -110.667 87.5 -176h-288c-27.333 38.667 -64.666 68.334 -111.999 89.001
s-98 31 -152 31s-104.667 -10.333 -152 -31s-84.666 -50.334 -111.999 -89.001c-34 -46.667 -51 -107.334 -51 -182.001c0 -100.667 27.667 -178.667 83 -234c29.333 -29.333 66.833 -52 112.5 -68s93.167 -24 142.5 -24c56.667 0 106.834 10.5 150.501 31.5
s73.834 51.833 90.501 92.5h320c-26 -76 -64.333 -144.333 -115 -205s-112.834 -108.834 -186.501 -144.501s-153.834 -53.5 -240.501 -53.5c-22 0 -44 1 -66 3l-32 -96c13.333 17.333 36 26 68 26c28 0 56.833 -7.83301 86.5 -23.5s54.167 -39.334 73.5 -71.001
s29 -70.5 29 -116.5c0 -10 -0.333008 -17.667 -1 -23c0 -52 -18.167 -93 -54.5 -123s-80.166 -45 -131.499 -45c-48 0 -91.833 14.167 -131.5 42.5s-67.167 70.166 -82.5 125.499h112c23.333 -46.667 55.333 -70 96 -70c20 0 37.5 7.66699 52.5 23s24.167 36.333 27.5 63
c0.666992 4.66699 1 11.334 1 20.001c0 32 -7.66699 55.667 -23 71s-35 23 -59 23c-21.333 0 -41.5 -6.33301 -60.5 -19s-30.5 -28.334 -34.5 -47.001l-112 48l80 208c-90 14 -171.667 50.833 -245 110.5s-130.833 132.834 -172.5 219.501s-62.5 177.334 -62.5 272.001
c0 46.667 5.33301 91.334 16 134.001z" />
    <glyph glyph-name="egrave" unicode="&#xe8;" horiz-adv-x="1296" 
d="M80 543c0 84 19.5029 170.501 58.5029 259.501s103.167 164 192.5 225s203 91.5 341 91.5c112.667 0 213.334 -23.667 302.001 -71s157.5 -117.166 206.5 -209.499s73.5 -202.5 73.5 -330.5c0 -34.667 -2 -71 -6 -109h-864c24 -61.333 64.333 -109.666 121 -144.999
s118.667 -53 186 -53c96 0 175 34 237 102h288c-20.667 -68.667 -55.334 -131.334 -104.001 -188.001s-108.5 -102.334 -179.5 -137.001s-147.167 -54.334 -228.5 -59.001c-5.33301 0 -9.83301 -0.166992 -13.5 -0.5s-7.5 -0.5 -11.5 -0.5
c-80.667 0 -157.834 16.333 -231.501 49s-138.334 77 -194.001 133s-98.834 118.667 -129.501 188s-46 139 -46 209c0 20.667 0.666992 36 2 46zM688.003 847.001c-60.667 0 -114.333 -10.167 -161 -30.5s-84.5 -46 -113.5 -77s-49.5 -64.5 -61.5 -100.5h624
c-18 54 -49.5 102.333 -94.5 145s-100.5 64 -166.5 64c-12 0 -21 -0.333008 -27 -1zM481.004 1711l448 -288l-112 -192l-464 272z" />
    <glyph glyph-name="eacute" unicode="&#xe9;" horiz-adv-x="1296" 
d="M80 543c0 84 19.5029 170.501 58.5029 259.501s103.167 164 192.5 225s203 91.5 341 91.5c112.667 0 213.334 -23.667 302.001 -71s157.5 -117.166 206.5 -209.499s73.5 -202.5 73.5 -330.5c0 -34.667 -2 -71 -6 -109h-864c24 -61.333 64.333 -109.666 121 -144.999
s118.667 -53 186 -53c96 0 175 34 237 102h288c-20.667 -68.667 -55.334 -131.334 -104.001 -188.001s-108.5 -102.334 -179.5 -137.001s-147.167 -54.334 -228.5 -59.001c-5.33301 0 -9.83301 -0.166992 -13.5 -0.5s-7.5 -0.5 -11.5 -0.5
c-80.667 0 -157.834 16.333 -231.501 49s-138.334 77 -194.001 133s-98.834 118.667 -129.501 188s-46 139 -46 209c0 20.667 0.666992 36 2 46zM688.003 847.001c-60.667 0 -114.333 -10.167 -161 -30.5s-84.5 -46 -113.5 -77s-49.5 -64.5 -61.5 -100.5h624
c-18 54 -49.5 102.333 -94.5 145s-100.5 64 -166.5 64c-12 0 -21 -0.333008 -27 -1zM367.004 1424l448 288l112 -224l-464 -256z" />
    <glyph glyph-name="ecircumflex" unicode="&#xea;" horiz-adv-x="1296" 
d="M80 543c0 84 19.5029 170.501 58.5029 259.501s103.167 164 192.5 225s203 91.5 341 91.5c112.667 0 213.334 -23.667 302.001 -71s157.5 -117.166 206.5 -209.499s73.5 -202.5 73.5 -330.5c0 -34.667 -2 -71 -6 -109h-864c24 -61.333 64.333 -109.666 121 -144.999
s118.667 -53 186 -53c96 0 175 34 237 102h288c-20.667 -68.667 -55.334 -131.334 -104.001 -188.001s-108.5 -102.334 -179.5 -137.001s-147.167 -54.334 -228.5 -59.001c-5.33301 0 -9.83301 -0.166992 -13.5 -0.5s-7.5 -0.5 -11.5 -0.5
c-80.667 0 -157.834 16.333 -231.501 49s-138.334 77 -194.001 133s-98.834 118.667 -129.501 188s-46 139 -46 209c0 20.667 0.666992 36 2 46zM688.003 847.001c-60.667 0 -114.333 -10.167 -161 -30.5s-84.5 -46 -113.5 -77s-49.5 -64.5 -61.5 -100.5h624
c-18 54 -49.5 102.333 -94.5 145s-100.5 64 -166.5 64c-12 0 -21 -0.333008 -27 -1zM528.004 1263h-304l304 272h224l272 -272h-288l-96 128z" />
    <glyph glyph-name="edieresis" unicode="&#xeb;" horiz-adv-x="1296" 
d="M80 543c0 84 19.5029 170.501 58.5029 259.501s103.167 164 192.5 225s203 91.5 341 91.5c112.667 0 213.334 -23.667 302.001 -71s157.5 -117.166 206.5 -209.499s73.5 -202.5 73.5 -330.5c0 -34.667 -2 -71 -6 -109h-864c24 -61.333 64.333 -109.666 121 -144.999
s118.667 -53 186 -53c96 0 175 34 237 102h288c-20.667 -68.667 -55.334 -131.334 -104.001 -188.001s-108.5 -102.334 -179.5 -137.001s-147.167 -54.334 -228.5 -59.001c-5.33301 0 -9.83301 -0.166992 -13.5 -0.5s-7.5 -0.5 -11.5 -0.5
c-80.667 0 -157.834 16.333 -231.501 49s-138.334 77 -194.001 133s-98.834 118.667 -129.501 188s-46 139 -46 209c0 20.667 0.666992 36 2 46zM688.003 847.001c-60.667 0 -114.333 -10.167 -161 -30.5s-84.5 -46 -113.5 -77s-49.5 -64.5 -61.5 -100.5h624
c-18 54 -49.5 102.333 -94.5 145s-100.5 64 -166.5 64c-12 0 -21 -0.333008 -27 -1zM289.004 1520h272v-272h-272v272zM705.004 1520h272v-272h-272v272z" />
    <glyph glyph-name="igrave" unicode="&#xec;" horiz-adv-x="481" 
d="M112 0v1152h272v-1152h-272zM79 1711l448 -288l-112 -192l-464 272z" />
    <glyph glyph-name="iacute" unicode="&#xed;" horiz-adv-x="479" 
d="M112 0v1152h272v-1152h-272zM-32 1424l448 288l112 -224l-464 -256z" />
    <glyph glyph-name="icircumflex" unicode="&#xee;" horiz-adv-x="479" 
d="M112 0v1152h272v-1152h-272zM145 1263h-304l304 272h224l272 -272h-288l-96 128z" />
    <glyph glyph-name="idieresis" unicode="&#xef;" horiz-adv-x="480" 
d="M112 0v1152h272v-1152h-272zM-112 1520h272v-272h-272v272zM304 1520h272v-272h-272v272z" />
    <glyph glyph-name="eth" unicode="&#xf0;" horiz-adv-x="1296" 
 />
    <glyph glyph-name="ntilde" unicode="&#xf1;" horiz-adv-x="1216" 
d="M112 1120l240 0.00195312v-96c29.333 41.333 72 73.333 128 96s117.667 34 185 34c76 0 148.833 -15.333 218.5 -46s126.5 -77.334 170.5 -140.001s66 -140 66 -232v-736h-272v672c0 44.667 -11.833 84 -35.5 118s-54.667 59.833 -93 77.5s-77.5 26.5 -117.5 26.5
c-60.667 0 -112.167 -18.833 -154.5 -56.5s-63.5 -92.834 -63.5 -165.501v-672h-272v1120zM863 1519l96 -175.999c-60.667 -60.667 -131.667 -91 -213 -91c-43.333 0 -89.666 9 -138.999 27c-23.333 9.33301 -48 14 -74 14c-20.667 0 -40.834 -2.33301 -60.501 -7
s-49.5 -12.334 -89.5 -23.001l-96 176c12.667 19.333 37.167 37.833 73.5 55.5s77.166 26.5 122.499 26.5c48.667 0 95.334 -11.333 140.001 -34c31.333 -16 61.666 -24 90.999 -24c36.667 0 86.334 18.667 149.001 56z" />
    <glyph glyph-name="ograve" unicode="&#xf2;" horiz-adv-x="1296" 
d="M271 960c136.667 130 285.003 195 445.003 195c50.667 0 99 -6.33301 145 -19s88.667 -29.667 128 -51s77.333 -48.166 114 -80.499s68.667 -68.5 96 -108.5c74.667 -101.333 112 -213 112 -335c0 -70 -12.333 -139.333 -37 -208s-60.334 -133 -107.001 -193
c-28.667 -38 -65.334 -70.5 -110.001 -97.5s-94.5 -47.167 -149.5 -60.5s-110.833 -20 -167.5 -20c-60 0 -119.333 7.16699 -178 21.5s-113.334 36.333 -164.001 66s-93 65.167 -127 106.5c-102 124.667 -153 257.667 -153 399c0 135.333 51 263.666 153 384.999z
M479.003 784c-56 -66 -84.002 -142.332 -84.002 -228.999c0 -82.667 28 -155.667 84 -219c64.667 -77.333 143.334 -116 236.001 -116c49.333 0 96.833 11.5 142.5 34.5s79.5 50.167 101.5 81.5c48 64 72 138 72 222c0 40 -6.16699 78.167 -18.5 114.5
s-30.166 68.166 -53.499 95.499c-69.333 77.333 -154.333 116 -255 116c-91.333 0 -166.333 -33.333 -225 -100zM495.001 1728l448 -288l-112 -192l-464 272z" />
    <glyph glyph-name="oacute" unicode="&#xf3;" horiz-adv-x="1296" 
d="M257 960c136.667 130 285.003 195 445.003 195c50.667 0 99 -6.33301 145 -19s88.667 -29.667 128 -51s77.333 -48.166 114 -80.499s68.667 -68.5 96 -108.5c74.667 -101.333 112 -213 112 -335c0 -70 -12.333 -139.333 -37 -208s-60.334 -133 -107.001 -193
c-28.667 -38 -65.334 -70.5 -110.001 -97.5s-94.5 -47.167 -149.5 -60.5s-110.833 -20 -167.5 -20c-60 0 -119.333 7.16699 -178 21.5s-113.334 36.333 -164.001 66s-93 65.167 -127 106.5c-102 124.667 -153 257.667 -153 399c0 135.333 51 263.666 153 384.999z
M465.003 784c-56 -66 -84.002 -142.332 -84.002 -228.999c0 -82.667 28 -155.667 84 -219c64.667 -77.333 143.334 -116 236.001 -116c49.333 0 96.833 11.5 142.5 34.5s79.5 50.167 101.5 81.5c48 64 72 138 72 222c0 40 -6.16699 78.167 -18.5 114.5
s-30.166 68.166 -53.499 95.499c-69.333 77.333 -154.333 116 -255 116c-91.333 0 -166.333 -33.333 -225 -100zM367.001 1440l448 288l112 -224l-464 -256z" />
    <glyph glyph-name="ocircumflex" unicode="&#xf4;" horiz-adv-x="1296" 
d="M271 960c136.667 130 285.003 195 445.003 195c50.667 0 99 -6.33301 145 -19s88.667 -29.667 128 -51s77.333 -48.166 114 -80.499s68.667 -68.5 96 -108.5c74.667 -101.333 112 -213 112 -335c0 -70 -12.333 -139.333 -37 -208s-60.334 -133 -107.001 -193
c-28.667 -38 -65.334 -70.5 -110.001 -97.5s-94.5 -47.167 -149.5 -60.5s-110.833 -20 -167.5 -20c-60 0 -119.333 7.16699 -178 21.5s-113.334 36.333 -164.001 66s-93 65.167 -127 106.5c-102 124.667 -153 257.667 -153 399c0 135.333 51 263.666 153 384.999z
M479.003 784c-56 -66 -84.002 -142.332 -84.002 -228.999c0 -82.667 28 -155.667 84 -219c64.667 -77.333 143.334 -116 236.001 -116c49.333 0 96.833 11.5 142.5 34.5s79.5 50.167 101.5 81.5c48 64 72 138 72 222c0 40 -6.16699 78.167 -18.5 114.5
s-30.166 68.166 -53.499 95.499c-69.333 77.333 -154.333 116 -255 116c-91.333 0 -166.333 -33.333 -225 -100zM544.001 1263h-304l304 272h224l272 -272h-288l-96 128z" />
    <glyph glyph-name="otilde" unicode="&#xf5;" horiz-adv-x="1296" 
d="M257 960c136.667 130 285.003 195 445.003 195c50.667 0 99 -6.33301 145 -19s88.667 -29.667 128 -51s77.333 -48.166 114 -80.499s68.667 -68.5 96 -108.5c74.667 -101.333 112 -213 112 -335c0 -70 -12.333 -139.333 -37 -208s-60.334 -133 -107.001 -193
c-28.667 -38 -65.334 -70.5 -110.001 -97.5s-94.5 -47.167 -149.5 -60.5s-110.833 -20 -167.5 -20c-60 0 -119.333 7.16699 -178 21.5s-113.334 36.333 -164.001 66s-93 65.167 -127 106.5c-102 124.667 -153 257.667 -153 399c0 135.333 51 263.666 153 384.999z
M465.003 784c-56 -66 -84.002 -142.332 -84.002 -228.999c0 -82.667 28 -155.667 84 -219c64.667 -77.333 143.334 -116 236.001 -116c49.333 0 96.833 11.5 142.5 34.5s79.5 50.167 101.5 81.5c48 64 72 138 72 222c0 40 -6.16699 78.167 -18.5 114.5
s-30.166 68.166 -53.499 95.499c-69.333 77.333 -154.333 116 -255 116c-91.333 0 -166.333 -33.333 -225 -100zM215.001 1440l448 288l112 -224l-464 -256zM743.001 1440l448 288l112 -224l-464 -256z" />
    <glyph glyph-name="odieresis" unicode="&#xf6;" horiz-adv-x="1296" 
d="M257 960c136.667 130 285.003 195 445.003 195c50.667 0 99 -6.33301 145 -19s88.667 -29.667 128 -51s77.333 -48.166 114 -80.499s68.667 -68.5 96 -108.5c74.667 -101.333 112 -213 112 -335c0 -70 -12.333 -139.333 -37 -208s-60.334 -133 -107.001 -193
c-28.667 -38 -65.334 -70.5 -110.001 -97.5s-94.5 -47.167 -149.5 -60.5s-110.833 -20 -167.5 -20c-60 0 -119.333 7.16699 -178 21.5s-113.334 36.333 -164.001 66s-93 65.167 -127 106.5c-102 124.667 -153 257.667 -153 399c0 135.333 51 263.666 153 384.999z
M465.003 784c-56 -66 -84.002 -142.332 -84.002 -228.999c0 -82.667 28 -155.667 84 -219c64.667 -77.333 143.334 -116 236.001 -116c49.333 0 96.833 11.5 142.5 34.5s79.5 50.167 101.5 81.5c48 64 72 138 72 222c0 40 -6.16699 78.167 -18.5 114.5
s-30.166 68.166 -53.499 95.499c-69.333 77.333 -154.333 116 -255 116c-91.333 0 -166.333 -33.333 -225 -100zM289.001 1536h272v-272h-272v272zM705.001 1536h272v-272h-272v272z" />
    <glyph glyph-name="divide" unicode="&#xf7;" horiz-adv-x="1217" 
 />
    <glyph glyph-name="oslash" unicode="&#xf8;" horiz-adv-x="1344" 
d="M896 1120l79.998 112l192 -128l-80 -128c122.667 -131.333 184 -274.333 184 -429c0 -103.333 -27.333 -200 -82 -290s-128.5 -161.833 -221.5 -215.5s-194.167 -80.5 -303.5 -80.5c-73.333 0 -145.666 13 -216.999 39l-80 -112l-208 144l80 112
c-121.333 126 -182 268.333 -182 427c0 76.667 15.167 151.167 45.5 223.5s72.333 136.333 126 192s117.334 99.667 191.001 132s151.5 48.5 233.5 48.5c79.333 0 160 -15.667 242 -47zM927.998 736l-336 -512c24.667 -3.33301 45.667 -5 63 -5c64 0 122.333 14.5 175 43.5
s94 67.667 124 116s45 100.5 45 156.5c0 70 -23.667 137 -71 201zM751.998 896c-20.667 2.66699 -42.668 4 -66.001 4c-76 0 -140.667 -16.5 -194 -49.5s-93.166 -76.167 -119.499 -129.5s-39.5 -109 -39.5 -167c0 -68.667 17 -130.667 51 -186z" />
    <glyph glyph-name="ugrave" unicode="&#xf9;" horiz-adv-x="1216" 
d="M112 512l-0.00195312 623.997h272v-624c0 -89.333 23.5 -160.666 70.5 -213.999s101.5 -80 163.5 -80c38 0 73.167 10.833 105.5 32.5s58.5 54.834 78.5 99.501s30 98.667 30 162v624h288v-1136h-240v112c-49.333 -54 -102.5 -94.667 -159.5 -122s-114.5 -41 -172.5 -41
c-57.333 0 -112.166 12.833 -164.499 38.5s-99.166 63.334 -140.499 113.001s-73.5 109.5 -96.5 179.5s-34.5 147.333 -34.5 232zM447.998 1744l448 -288l-112 -192l-464 272z" />
    <glyph glyph-name="uacute" unicode="&#xfa;" horiz-adv-x="1216" 
d="M112 512l-0.00195312 623.997h272v-624c0 -89.333 23.5 -160.666 70.5 -213.999s101.5 -80 163.5 -80c38 0 73.167 10.833 105.5 32.5s58.5 54.834 78.5 99.501s30 98.667 30 162v624h288v-1136h-240v112c-49.333 -54 -102.5 -94.667 -159.5 -122s-114.5 -41 -172.5 -41
c-57.333 0 -112.166 12.833 -164.499 38.5s-99.166 63.334 -140.499 113.001s-73.5 109.5 -96.5 179.5s-34.5 147.333 -34.5 232zM319.998 1457l448 288l112 -224l-464 -256z" />
    <glyph glyph-name="ucircumflex" unicode="&#xfb;" horiz-adv-x="1217" 
d="M112 512l-0.00195312 623.997h272v-624c0 -89.333 23.5 -160.666 70.5 -213.999s101.5 -80 163.5 -80c38 0 73.167 10.833 105.5 32.5s58.5 54.834 78.5 99.501s30 98.667 30 162v624h288v-1136h-240v112c-49.333 -54 -102.5 -94.667 -159.5 -122s-114.5 -41 -172.5 -41
c-57.333 0 -112.166 12.833 -164.499 38.5s-99.166 63.334 -140.499 113.001s-73.5 109.5 -96.5 179.5s-34.5 147.333 -34.5 232zM143.998 1457l448 288l112 -224l-464 -256zM679.998 1457l448 288l112 -224l-464 -256z" />
    <glyph glyph-name="udieresis" unicode="&#xfc;" horiz-adv-x="1216" 
d="M128 512l-0.00195312 623.997h272v-624c0 -89.333 23.5 -160.666 70.5 -213.999s101.5 -80 163.5 -80c38 0 73.167 10.833 105.5 32.5s58.5 54.834 78.5 99.501s30 98.667 30 162v624h288v-1136h-240v112c-49.333 -54 -102.5 -94.667 -159.5 -122s-114.5 -41 -172.5 -41
c-57.333 0 -112.166 12.833 -164.499 38.5s-99.166 63.334 -140.499 113.001s-73.5 109.5 -96.5 179.5s-34.5 147.333 -34.5 232zM239.998 1536h272v-272h-272v272zM655.998 1536h272v-272h-272v272z" />
    <glyph glyph-name="yacute" unicode="&#xfd;" horiz-adv-x="1184" 
 />
    <glyph glyph-name="thorn" unicode="&#xfe;" horiz-adv-x="1343" 
 />
    <glyph glyph-name="ydieresis" unicode="&#xff;" horiz-adv-x="1184" 
d="M432 96l-432 1056h320l272 -752l256 752h320l-656 -1536h-304zM207 1520h272v-272h-272v272zM623 1520h272v-272h-272v272z" />
    <glyph glyph-name="dotlessi" unicode="&#x131;" horiz-adv-x="480" 
d="M112 0v1152h272v-1152h-272z" />
    <glyph glyph-name="OE" unicode="&#x152;" horiz-adv-x="2160" 
d="M352 720c4.66699 -108.667 32.1689 -199.165 82.502 -271.498s111.5 -125.166 183.5 -158.499s143.333 -50 214 -50c66 0 130 14.167 192 42.5s117.333 67.5 166 117.5s86.5 105.333 113.5 166s40.5 122.667 40.5 186c0 81.333 -19.167 159.166 -57.5 233.499
s-94 135.5 -167 183.5s-158.167 74.333 -255.5 79c-61.333 0 -120.833 -8.66699 -178.5 -26s-110.834 -45.833 -159.501 -85.5s-88.834 -94.334 -120.501 -164.001s-49.5 -153.834 -53.5 -252.501zM1376 144.002c-71.333 -53.333 -151.835 -96.002 -241.502 -128.002
s-190.5 -48 -302.5 -48c-132 0 -247.5 26.333 -346.5 79s-178.833 118.334 -239.5 197.001s-106.167 161.167 -136.5 247.5s-45.5 162.5 -45.5 228.5c4 144 31.667 268.167 83 372.5s116.333 187.5 195 249.5s163.834 107.167 255.501 135.5s180.5 42.5 266.5 42.5
c67.333 0 132 -8 194 -24s119.333 -38.167 172 -66.5s101.334 -62.166 146.001 -101.499v192h704v-272h-432v-336h432v-288h-432v-336h432v-288h-704v144z" />
    <glyph glyph-name="oe" unicode="&#x153;" horiz-adv-x="2192" 
d="M1104 912c57.333 81.333 125.328 142.5 203.995 183.5s160.334 61.5 245.001 61.5c74.667 0 146.834 -14.833 216.501 -44.5s131.834 -72.5 186.501 -128.5s98 -124 130 -204s48 -168 48 -264c0 -32.667 -2 -66 -6 -100h-880c12.667 -42.667 34.334 -79 65.001 -109
s66.834 -52.5 108.501 -67.5s85.167 -22.5 130.5 -22.5c46 0 88.667 7.33301 128 22s71.333 36.334 96 65.001h320c-77.333 -122.667 -165 -213 -263 -271s-197.667 -87 -299 -87c-90 0 -173.833 21.167 -251.5 63.5s-137.167 97.833 -178.5 166.5
c-16 -32 -46.667 -65.833 -92 -101.5s-98.166 -65 -158.499 -88s-120.833 -34.5 -181.5 -34.5c-96 0 -181.833 16.167 -257.5 48.5s-138.834 76.833 -189.501 133.5s-88.334 120 -113.001 190s-37 143 -37 219s12.667 150.833 38 224.5s63.166 139.667 113.499 198
s111.833 104.166 184.5 137.499s155.334 50 248.001 50c20 0 35 -0.333008 45 -1c22.667 -1.33301 58.5 -7.33301 107.5 -18s102.833 -33.667 161.5 -69s102.334 -86.333 131.001 -153zM1824 672c-12 49.333 -30.999 89.667 -56.999 121s-57 54.333 -93 69
s-73.667 22 -113 22c-46 0 -91.667 -9.16699 -137 -27.5s-83.833 -43.833 -115.5 -76.5s-51.834 -68.667 -60.501 -108h576zM671.996 896.001c-77.333 -4.66699 -142.497 -23 -195.497 -55s-92.5 -72.833 -118.5 -122.5s-39 -102.167 -39 -157.5
c0 -58 13.333 -112.833 40 -164.5s66 -93.5 118 -125.5s112 -48 180 -48c13.333 0 23.666 0.333008 30.999 1c63.333 2.66699 117.666 19.5 162.999 50.5s79.166 71.167 101.499 120.5s33.5 101.333 33.5 156c0 58 -12.333 113.833 -37 167.5s-60.5 96.667 -107.5 129
s-103.5 48.5 -169.5 48.5z" />
    <glyph glyph-name="florin" unicode="&#x192;" 
d="M752 1200h175.999l-32 -240h-192l-128 -752c-20 -131.333 -51.167 -235.5 -93.5 -312.5s-100 -132.333 -173 -166s-166.833 -50.5 -281.5 -50.5c-26 0 -46 0.333008 -60 1l32 240c68 0 122.333 9.33301 163 28s71.5 48.5 92.5 89.5s37.167 97.833 48.5 170.5l128 752
h-192l48 240h192c10 125.333 54.833 236.833 134.5 334.5s200.834 146.5 363.501 146.5c6.66699 0 12.167 -0.166992 16.5 -0.5s8.83301 -0.5 13.5 -0.5l-48 -256c-70.667 -8 -121 -28.833 -151 -62.5s-49 -87.5 -57 -161.5z" />
    <glyph glyph-name="circumflex" unicode="&#x2c6;" horiz-adv-x="1104" 
d="M448 1296h-304l304 272h224l272 -272h-288l-96 128z" />
    <glyph glyph-name="breve" unicode="&#x2d8;" horiz-adv-x="976" 
d="M352 1552c8.66699 -20.667 24.999 -37.834 48.999 -51.501s50.667 -20.5 80 -20.5c57.333 0 99.666 24 126.999 72h192c-4 -87.333 -37.5 -156.166 -100.5 -206.499s-136.5 -75.5 -220.5 -75.5c-83.333 0 -157.166 24.5 -221.499 73.5s-102.166 118.5 -113.499 208.5h208
z" />
    <glyph glyph-name="ring" unicode="&#x2da;" horiz-adv-x="736" 
d="M352 1680c67.333 0 118.833 -19.667 154.5 -59s53.5 -87 53.5 -143c0 -57.333 -19.5 -107.333 -58.5 -150s-94.167 -64 -165.5 -64c-60.667 0 -108.5 20.667 -143.5 62s-52.5 90 -52.5 146c0 56.667 18.333 105.5 55 146.5s89 61.5 157 61.5zM352 1552
c-26.667 0 -47.332 -6.83105 -61.999 -20.498s-22 -30.834 -22 -51.501c0 -22.667 8.16699 -43 24.5 -61s36.166 -27 59.499 -27c24 0 43 8.66699 57 26s21 37 21 59c0 21.333 -6.5 39.166 -19.5 53.499s-32.5 21.5 -58.5 21.5z" />
    <glyph glyph-name="tilde" unicode="&#x2dc;" horiz-adv-x="976" 
d="M720 1552l96 -175.999c-60.667 -60.667 -131.667 -91 -213 -91c-43.333 0 -89.666 9 -138.999 27c-23.333 9.33301 -48 14 -74 14c-20.667 0 -40.834 -2.33301 -60.501 -7s-49.5 -12.334 -89.5 -23.001l-96 176c12.667 19.333 37.167 37.833 73.5 55.5
s77.166 26.5 122.499 26.5c48.667 0 95.334 -11.333 140.001 -34c31.333 -16 61.666 -24 90.999 -24c36.667 0 86.334 18.667 149.001 56z" />
    <glyph glyph-name="emdash" unicode="&#x2013;" horiz-adv-x="1024" 
d="M16 768h992v-256h-992v256z" />
    <glyph glyph-name="endash" unicode="&#x2014;" horiz-adv-x="2032" 
d="M160 752h1696v-240h-1696v240z" />
    <glyph glyph-name="quoteleft" unicode="&#x2018;" horiz-adv-x="576" 
d="M144 1312c0 66 26.5 120.168 79.5 162.501s111.833 68.166 176.5 77.499v-160c-40.667 -6 -67 -16.333 -79 -31s-18 -36 -18 -64c0 -7.33301 0.333008 -14.333 1 -21v-28h112v-272h-272v336z" />
    <glyph glyph-name="quotedblleft" unicode="&#x201c;" horiz-adv-x="975" 
d="M576 1328c0 66 26.5 120.168 79.5 162.501s111.833 68.166 176.5 77.499v-160c-40.667 -6 -67 -16.333 -79 -31s-18 -36 -18 -64c0 -7.33301 0.333008 -14.333 1 -21v-28h112v-272h-272v336zM144 1328c0 66 26.5 120.168 79.5 162.501s111.833 68.166 176.5 77.499v-160
c-40.667 -6 -67 -16.333 -79 -31s-18 -36 -18 -64c0 -7.33301 0.333008 -14.333 1 -21v-28h112v-272h-272v336z" />
    <glyph glyph-name="quotedblright" unicode="&#x201d;" horiz-adv-x="975" 
d="M559 1504h271.998c-1.33301 -24 -2 -43 -2 -57c0.666992 -24 1.33398 -50.333 2.00098 -79c0.666992 -29.333 1 -53.333 1 -72c0 -105.333 -18.167 -190.5 -54.5 -255.5s-109.166 -102.5 -218.499 -112.5v144c32.667 8 56.5 15 71.5 21s28.167 19.5 39.5 40.5
s17 53.833 17 98.5h-128v272zM143.998 1504h271.998c-1.33301 -24 -2 -43 -2 -57c0.666992 -24 1.33398 -50.333 2.00098 -79c0.666992 -29.333 1 -53.333 1 -72c0 -105.333 -18.167 -190.5 -54.5 -255.5s-109.166 -102.5 -218.499 -112.5v144c32.667 8 56.5 15 71.5 21
s28.167 19.5 39.5 40.5s17 53.833 17 98.5h-128v272z" />
    <glyph glyph-name="quotedblbase" unicode="&#x201e;" horiz-adv-x="976" 
d="M560 288l271.999 0.000976562c0 -27.333 1.33301 -68 4 -122s4 -93.667 4 -119c0 -64.667 -7.16699 -119.834 -21.5 -165.501s-42.166 -83.667 -83.499 -114s-99.666 -48.833 -174.999 -55.5v144l49 12.5c17.333 4.33301 31.166 9.33301 41.499 15s19.5 15.5 27.5 29.5
s12 32.667 12 56c0 6 -0.666992 16.333 -2 31h-128v288zM143.999 288.001l271.999 0.000976562c0 -27.333 1.33301 -68 4 -122s4 -93.667 4 -119c0 -64.667 -7.16699 -119.834 -21.5 -165.501s-42.166 -83.667 -83.499 -114s-99.666 -48.833 -174.999 -55.5v144l49 12.5
c17.333 4.33301 31.166 9.33301 41.499 15s19.5 15.5 27.5 29.5s12 32.667 12 56c0 6 -0.666992 16.333 -2 31h-128v288z" />
    <glyph glyph-name="dagger" unicode="&#x2020;" 
d="M432 1120v368h272v-368h336v-240h-336v-1136h-272v1136h-336v240h336z" />
    <glyph glyph-name="daggerdbl" unicode="&#x2021;" 
d="M432 1200v304h272v-304h320v-240h-320v-192h320v-240h-320v-784h-272v784h-320v240h320v192h-320v240h320z" />
    <glyph glyph-name="bullet" unicode="&#x2022;" horiz-adv-x="1216" 
d="M128 512v272h288v-272h-288z" />
    <glyph glyph-name="ellipsis" unicode="&#x2026;" horiz-adv-x="2032" 
d="M1553 272h288v-272h-288v272zM865 272h288v-272h-288v272zM207 272h288v-272h-288v272z" />
    <glyph glyph-name="perthousand" unicode="&#x2030;" horiz-adv-x="2608" 
d="M400 1536c83.333 0 154.168 -17.334 212.501 -52.001s101.833 -80.167 130.5 -136.5s43 -115.833 43 -178.5c0 -62 -14.167 -121.667 -42.5 -179s-70.333 -103.333 -126 -138s-122.834 -52 -201.501 -52c-72 0 -135.167 19 -189.5 57s-95.833 87.333 -124.5 148
s-43 124.334 -43 191.001c0 60 12.5 116 37.5 168s63 93.667 114 125s114.167 47 189.5 47zM416.002 1312c-50 0 -87.833 -12.334 -113.5 -37.001s-38.5 -55 -38.5 -91c0 -37.333 13 -70.666 39 -99.999s58.333 -44 97 -44c46.667 0 83.667 14.5 111 43.5s41 62.5 41 100.5
c0 35.333 -11.667 65.5 -35 90.5s-57 37.5 -101 37.5zM1072 1504h208l-608 -1504h-208zM1328 687.998c64.667 0 120.835 -9.33594 168.502 -28.0029s86.5 -43.834 116.5 -75.501s52.333 -68 67 -109s22 -83.833 22 -128.5c0 -46.667 -7.83301 -92.667 -23.5 -138
s-38.834 -86.166 -69.501 -122.499s-68.5 -65.166 -113.5 -86.499s-95.5 -32 -151.5 -32c-73.333 0 -138.833 18.5 -196.5 55.5s-102 85.333 -133 145s-46.5 121.5 -46.5 185.5c0 88.667 30.167 164.834 90.5 228.501s150.166 98.834 269.499 105.501zM1344 463.995
c-44 0 -77.999 -12.668 -101.999 -38.001s-36 -56.666 -36 -93.999c0 -36.667 12.667 -69.167 38 -97.5s58.666 -42.5 99.999 -42.5c45.333 0 80.666 13.333 105.999 40s38 58.667 38 96c0 36.667 -12.667 68.5 -38 95.5s-60.666 40.5 -105.999 40.5zM2192 687.994
c56.667 -2 107.167 -13.502 151.5 -34.502s81.333 -49.167 111 -84.5s51.667 -74.5 66 -117.5s21.5 -87.833 21.5 -134.5c0 -62 -12.833 -119.5 -38.5 -172.5s-63.834 -95.667 -114.501 -128s-111 -48.5 -181 -48.5c-119.333 0 -213.5 37.333 -282.5 112
s-103.5 161.667 -103.5 261c0 60.667 13.833 117.334 41.5 170.001s69.334 95.334 125.001 128.001s123.5 49 203.5 49zM2192 463.992c-45.333 0 -81 -13.166 -107 -39.499s-39 -57.833 -39 -94.5c0 -34.667 11.5 -65.334 34.5 -92.001s54.833 -42 95.5 -46
c47.333 0 83.666 12.833 109 38.5c25.333 25.667 38 56.5 38 92.5c0 34.667 -11.167 65.167 -33.5 91.5s-54.833 42.833 -97.5 49.5z" />
    <glyph glyph-name="guilsinglleft" unicode="&#x2039;" horiz-adv-x="480" 
d="M336 736l-128 -96l128 -112v-256l-272 256v224l272 240v-256z" />
    <glyph glyph-name="guilsinglright" unicode="&#x203a;" horiz-adv-x="480" 
d="M160 752v256l272 -240v-224l-272 -256v256l128 96z" />
    <glyph glyph-name="trademark" unicode="&#x2122;" horiz-adv-x="2032" 
d="M128 1344v160h688v-160h-256v-672h-192v672h-240zM1200 1504l192 -464l176 464h288v-832h-160v640l-256 -640h-96l-256 640v-640h-160v832h272z" />
    <glyph glyph-name="fi" unicode="&#xf001;" horiz-adv-x="1056" 
d="M128 1120c0 50 8 99.333 24 148s40.667 92.167 74 130.5s75 68.333 125 90s109 32.5 177 32.5c14 0 24.667 -0.333008 32 -1v-272c-58.667 0 -100 -6.83301 -124 -20.5s-36 -49.5 -36 -107.5h144v-240h-144v-880h-272v880h-96v240h96zM944 1488v-240h-272v240h272z
M672 1120h272v-1120h-272v1120z" />
    <glyph glyph-name="fl" unicode="&#xf002;" horiz-adv-x="1056" 
d="M128 1120c0 110 30.332 204.666 90.999 283.999s154.334 119 281.001 119c18.667 0 38.667 -1 60 -3v-272c-49.333 0 -84.833 -2.83301 -106.5 -8.5s-36 -17.167 -43 -34.5s-10.5 -45.666 -10.5 -84.999h144v-240h-144v-880h-272v880h-96v240h96zM671.999 -0.000976562
v1488h272v-1488h-272z" />
    <glyph glyph-name=".null" horiz-adv-x="0" 
 />
    <glyph glyph-name="nonmarkingreturn" horiz-adv-x="0" 
 />
    </font>
</defs>
</svg>
